<?xml version="1.0" encoding="UTF-8"?>
<!DOCTYPE svg PUBLIC "-//W3C//DTD SVG 1.1//EN" "http://www.w3.org/Graphics/SVG/1.1/DTD/svg11.dtd">
<svg version="1.1" xmlns="http://www.w3.org/2000/svg" xmlns:xlink="http://www.w3.org/1999/xlink" x="0" y="0" width="632.034" height="653.362" viewBox="0, 0, 632.034, 653.362">
  <defs>
    <radialGradient id="Gradient_1" gradientUnits="userSpaceOnUse" cx="556.851" cy="270.022" r="59.046" gradientTransform="matrix(1.3, 0, 0, 1.3, 0, 0)">
      <stop offset="0" stop-color="#C2C4C1"/>
      <stop offset="0.006" stop-color="#C2C4C1"/>
      <stop offset="0.298" stop-color="#BABCBA"/>
      <stop offset="0.657" stop-color="#A5A7A6"/>
      <stop offset="1" stop-color="#989B9A"/>
    </radialGradient>
    <radialGradient id="Gradient_2" gradientUnits="userSpaceOnUse" cx="477.154" cy="279.672" r="132.927" gradientTransform="matrix(1.3, 0, 0, 1.3, 0, 0)">
      <stop offset="0" stop-color="#FFFFFE"/>
      <stop offset="1" stop-color="#E2E2DD"/>
    </radialGradient>
    <radialGradient id="Gradient_3" gradientUnits="userSpaceOnUse" cx="350.782" cy="255.434" r="188.371" gradientTransform="matrix(1.3, 0, 0, 1.3, 0, 0)">
      <stop offset="0" stop-color="#FFFFFE"/>
      <stop offset="1" stop-color="#E2E2DD"/>
    </radialGradient>
    <radialGradient id="Gradient_4" gradientUnits="userSpaceOnUse" cx="65.868" cy="163.999" r="192.124" gradientTransform="matrix(1.3, 0, 0, 1.3, 0, 0)">
      <stop offset="0" stop-color="#FFFFFE"/>
      <stop offset="1" stop-color="#E2E2DD"/>
    </radialGradient>
    <radialGradient id="Gradient_5" gradientUnits="userSpaceOnUse" cx="239.173" cy="99.772" r="112.51" gradientTransform="matrix(1.3, 0, 0, 1.3, 0, 0)">
      <stop offset="0" stop-color="#FFFFFE"/>
      <stop offset="1" stop-color="#E2E2DD"/>
    </radialGradient>
    <clipPath id="Clip_1">
      <path d="M218.559,460.442 C182.079,460.442 162.601,456.95 162.601,456.95 L395.992,429.66 C395.992,429.66 377.234,446.246 301.295,455.255 C268.033,459.204 240.282,460.442 218.559,460.442 z"/>
    </clipPath>
    <clipPath id="Clip_2">
      <path d="M231.123,536.945 C184.012,536.944 161.006,528.735 161.006,528.735 L394.936,506.888 C394.936,506.888 376.857,520.975 301.123,531.7 C273.698,535.573 250.398,536.945 231.123,536.945 z"/>
    </clipPath>
    <radialGradient id="Gradient_6" gradientUnits="userSpaceOnUse" cx="367.946" cy="390.899" r="65.414" gradientTransform="matrix(1.3, 0, 0, 1.3, 0, 0)">
      <stop offset="0" stop-color="#C2C4C1"/>
      <stop offset="0.006" stop-color="#C2C4C1"/>
      <stop offset="0.298" stop-color="#BABCBA"/>
      <stop offset="0.657" stop-color="#A5A7A6"/>
      <stop offset="1" stop-color="#989B9A"/>
    </radialGradient>
    <radialGradient id="Gradient_7" gradientUnits="userSpaceOnUse" cx="366.874" cy="449.287" r="65.417" gradientTransform="matrix(1.3, 0, 0, 1.3, 0, 0)">
      <stop offset="0" stop-color="#C2C4C1"/>
      <stop offset="0.006" stop-color="#C2C4C1"/>
      <stop offset="0.298" stop-color="#BABCBA"/>
      <stop offset="0.657" stop-color="#A5A7A6"/>
      <stop offset="1" stop-color="#989B9A"/>
    </radialGradient>
    <radialGradient id="Gradient_8" gradientUnits="userSpaceOnUse" cx="470.72" cy="278.227" r="114.078" gradientTransform="matrix(1.3, 0, 0, 1.3, 0, 0)">
      <stop offset="0" stop-color="#FFFFFE"/>
      <stop offset="1" stop-color="#E2E2DD"/>
    </radialGradient>
    <radialGradient id="Gradient_9" gradientUnits="userSpaceOnUse" cx="464.348" cy="173.129" r="74.472" gradientTransform="matrix(1.3, 0, 0, 1.3, 0, 0)">
      <stop offset="0" stop-color="#DE8954"/>
      <stop offset="0.5" stop-color="#D56C31"/>
      <stop offset="1" stop-color="#B95B31"/>
    </radialGradient>
    <radialGradient id="Gradient_10" gradientUnits="userSpaceOnUse" cx="438.228" cy="163.938" r="74.442" gradientTransform="matrix(1.3, 0, 0, 1.3, 0, 0)">
      <stop offset="0" stop-color="#DE8954"/>
      <stop offset="0.5" stop-color="#D56C31"/>
      <stop offset="1" stop-color="#B95B31"/>
    </radialGradient>
    <radialGradient id="Gradient_11" gradientUnits="userSpaceOnUse" cx="449.956" cy="176.073" r="74.462" gradientTransform="matrix(1.3, 0, 0, 1.3, 0, 0)">
      <stop offset="0" stop-color="#DE8954"/>
      <stop offset="0.5" stop-color="#D56C31"/>
      <stop offset="1" stop-color="#B95B31"/>
    </radialGradient>
    <radialGradient id="Gradient_12" gradientUnits="userSpaceOnUse" cx="420.1" cy="163.946" r="74.458" gradientTransform="matrix(1.3, 0, 0, 1.3, 0, 0)">
      <stop offset="0" stop-color="#DE8954"/>
      <stop offset="0.5" stop-color="#D56C31"/>
      <stop offset="1" stop-color="#B95B31"/>
    </radialGradient>
    <radialGradient id="Gradient_13" gradientUnits="userSpaceOnUse" cx="428.349" cy="180.246" r="155.457" gradientTransform="matrix(1.3, 0, 0, 1.3, 0, 0)">
      <stop offset="0" stop-color="#FFFFFE"/>
      <stop offset="1" stop-color="#E2E2DD"/>
    </radialGradient>
    <radialGradient id="Gradient_14" gradientUnits="userSpaceOnUse" cx="520.381" cy="212.98" r="37.549" gradientTransform="matrix(1.3, 0, 0, 1.3, 0, 0)">
      <stop offset="0" stop-color="#FFFFFE"/>
      <stop offset="1" stop-color="#E2E2DD"/>
    </radialGradient>
    <linearGradient id="Gradient_15" gradientUnits="userSpaceOnUse" x1="419.063" y1="234.628" x2="432.445" y2="255.755" gradientTransform="matrix(1.3, 0, 0, 1.3, 0, 0)">
      <stop offset="0" stop-color="#F4E09E"/>
      <stop offset="0.5" stop-color="#EABD43"/>
      <stop offset="1" stop-color="#E2A03E"/>
    </linearGradient>
    <radialGradient id="Gradient_16" gradientUnits="userSpaceOnUse" cx="422.786" cy="214.765" r="4.618" gradientTransform="matrix(1.3, 0, 0, 1.3, 0, 0)">
      <stop offset="0" stop-color="#FFFFFE"/>
      <stop offset="1" stop-color="#E2E2DD"/>
    </radialGradient>
    <linearGradient id="Gradient_17" gradientUnits="userSpaceOnUse" x1="428.21" y1="240.371" x2="447.864" y2="267.66" gradientTransform="matrix(1.3, 0, 0, 1.3, 0, 0)">
      <stop offset="0" stop-color="#D4E9EF"/>
      <stop offset="0.006" stop-color="#D4E9EF"/>
      <stop offset="0.449" stop-color="#A9D4E3"/>
      <stop offset="1" stop-color="#92C3D9"/>
    </linearGradient>
    <linearGradient id="Gradient_18" gradientUnits="userSpaceOnUse" x1="445.637" y1="243.936" x2="462.473" y2="267.313" gradientTransform="matrix(1.3, 0, 0, 1.3, 0, 0)">
      <stop offset="0" stop-color="#D4E9EF"/>
      <stop offset="0.006" stop-color="#D4E9EF"/>
      <stop offset="0.449" stop-color="#A9D4E3"/>
      <stop offset="1" stop-color="#92C3D9"/>
    </linearGradient>
    <linearGradient id="Gradient_19" gradientUnits="userSpaceOnUse" x1="437.664" y1="229.912" x2="455.702" y2="254.958" gradientTransform="matrix(1.3, 0, 0, 1.3, 0, 0)">
      <stop offset="0" stop-color="#D4E9EF"/>
      <stop offset="0.006" stop-color="#D4E9EF"/>
      <stop offset="0.449" stop-color="#A9D4E3"/>
      <stop offset="1" stop-color="#92C3D9"/>
    </linearGradient>
    <radialGradient id="Gradient_20" gradientUnits="userSpaceOnUse" cx="428.949" cy="246.611" r="147.766" gradientTransform="matrix(1.3, 0, 0, 1.3, 0, 0)">
      <stop offset="0" stop-color="#FFFFFE"/>
      <stop offset="1" stop-color="#E2E2DD"/>
    </radialGradient>
    <radialGradient id="Gradient_21" gradientUnits="userSpaceOnUse" cx="520.564" cy="278.299" r="38.289" gradientTransform="matrix(1.3, 0, 0, 1.3, 0, 0)">
      <stop offset="0" stop-color="#FFFFFE"/>
      <stop offset="1" stop-color="#E2E2DD"/>
    </radialGradient>
    <linearGradient id="Gradient_22" gradientUnits="userSpaceOnUse" x1="421.432" y1="323.787" x2="439.53" y2="352.359" gradientTransform="matrix(1.3, 0, 0, 1.3, 0, 0)">
      <stop offset="0" stop-color="#D5745B"/>
      <stop offset="0.5" stop-color="#C4292B"/>
      <stop offset="1" stop-color="#AF2A2E"/>
    </linearGradient>
    <radialGradient id="Gradient_23" gradientUnits="userSpaceOnUse" cx="426.458" cy="296.921" r="6.245" gradientTransform="matrix(1.3, 0, 0, 1.3, 0, 0)">
      <stop offset="0" stop-color="#FFFFFE"/>
      <stop offset="1" stop-color="#E2E2DD"/>
    </radialGradient>
    <linearGradient id="Gradient_24" gradientUnits="userSpaceOnUse" x1="485.293" y1="349.981" x2="532.544" y2="393.597" gradientTransform="matrix(1.3, 0, 0, 1.3, 0, 0)">
      <stop offset="0" stop-color="#D4E9EF"/>
      <stop offset="0.006" stop-color="#D4E9EF"/>
      <stop offset="0.449" stop-color="#A9D4E3"/>
      <stop offset="1" stop-color="#92C3D9"/>
    </linearGradient>
    <linearGradient id="Gradient_25" gradientUnits="userSpaceOnUse" x1="504.905" y1="353.363" x2="544.419" y2="389.837" gradientTransform="matrix(1.3, 0, 0, 1.3, 0, 0)">
      <stop offset="0" stop-color="#D4E9EF"/>
      <stop offset="0.006" stop-color="#D4E9EF"/>
      <stop offset="0.449" stop-color="#A9D4E3"/>
      <stop offset="1" stop-color="#92C3D9"/>
    </linearGradient>
    <linearGradient id="Gradient_26" gradientUnits="userSpaceOnUse" x1="504.448" y1="327.442" x2="524.266" y2="345.735" gradientTransform="matrix(1.3, 0, 0, 1.3, 0, 0)">
      <stop offset="0" stop-color="#D4E9EF"/>
      <stop offset="0.006" stop-color="#D4E9EF"/>
      <stop offset="0.449" stop-color="#A9D4E3"/>
      <stop offset="1" stop-color="#92C3D9"/>
    </linearGradient>
    <radialGradient id="Gradient_27" gradientUnits="userSpaceOnUse" cx="428.349" cy="340.816" r="149.868" gradientTransform="matrix(1.3, 0, 0, 1.3, 0, 0)">
      <stop offset="0" stop-color="#FFFFFE"/>
      <stop offset="1" stop-color="#E2E2DD"/>
    </radialGradient>
    <radialGradient id="Gradient_28" gradientUnits="userSpaceOnUse" cx="520.747" cy="375.307" r="39.073" gradientTransform="matrix(1.3, 0, 0, 1.3, 0, 0)">
      <stop offset="0" stop-color="#FFFFFE"/>
      <stop offset="1" stop-color="#E2E2DD"/>
    </radialGradient>
    <radialGradient id="Gradient_29" gradientUnits="userSpaceOnUse" cx="214.431" cy="189.157" r="271.931" gradientTransform="matrix(1.3, 0, 0, 1.3, 0, 0)">
      <stop offset="0" stop-color="#FFFFFE"/>
      <stop offset="1" stop-color="#E2E2DD"/>
    </radialGradient>
    <radialGradient id="Gradient_30" gradientUnits="userSpaceOnUse" cx="214.431" cy="289.878" r="275.363" gradientTransform="matrix(1.3, 0, 0, 1.3, 0, 0)">
      <stop offset="0" stop-color="#FFFFFE"/>
      <stop offset="1" stop-color="#E2E2DD"/>
    </radialGradient>
    <radialGradient id="Gradient_31" gradientUnits="userSpaceOnUse" cx="225.9" cy="217.887" r="248.018" gradientTransform="matrix(1.3, 0, 0, 1.3, 0, 0)">
      <stop offset="0" stop-color="#FFFFFE"/>
      <stop offset="1" stop-color="#E2E2DD"/>
    </radialGradient>
    <radialGradient id="Gradient_32" gradientUnits="userSpaceOnUse" cx="224.653" cy="325.917" r="246.673" gradientTransform="matrix(1.3, 0, 0, 1.3, 0, 0)">
      <stop offset="0" stop-color="#FFFFFE"/>
      <stop offset="1" stop-color="#E2E2DD"/>
    </radialGradient>
    <radialGradient id="Gradient_33" gradientUnits="userSpaceOnUse" cx="179.528" cy="230.987" r="24.716" gradientTransform="matrix(1.3, 0, 0, 1.3, 0, 0)">
      <stop offset="0" stop-color="#FFFFFE"/>
      <stop offset="1" stop-color="#E2E2DD"/>
    </radialGradient>
    <radialGradient id="Gradient_34" gradientUnits="userSpaceOnUse" cx="179.528" cy="340.119" r="24.71" gradientTransform="matrix(1.3, 0, 0, 1.3, 0, 0)">
      <stop offset="0" stop-color="#FFFFFE"/>
      <stop offset="1" stop-color="#E2E2DD"/>
    </radialGradient>
    <linearGradient id="Gradient_35" gradientUnits="userSpaceOnUse" x1="504.8" y1="327.062" x2="524.618" y2="345.355" gradientTransform="matrix(1.3, 0, 0, 1.3, 0, 0)">
      <stop offset="0" stop-color="#D4E9EF"/>
      <stop offset="0.006" stop-color="#D4E9EF"/>
      <stop offset="0.449" stop-color="#A9D4E3"/>
      <stop offset="1" stop-color="#92C3D9"/>
    </linearGradient>
    <linearGradient id="Gradient_36" gradientUnits="userSpaceOnUse" x1="251.209" y1="175.708" x2="318.912" y2="175.708" gradientTransform="matrix(1.3, 0, 0, 1.3, 0, 0)">
      <stop offset="0" stop-color="#D4E9EF"/>
      <stop offset="0.006" stop-color="#D4E9EF"/>
      <stop offset="0.449" stop-color="#A9D4E3"/>
      <stop offset="1" stop-color="#92C3D9"/>
    </linearGradient>
    <linearGradient id="Gradient_37" gradientUnits="userSpaceOnUse" x1="251.419" y1="179.707" x2="318.71" y2="171.711" gradientTransform="matrix(1.3, 0, 0, 1.3, 0, 0)">
      <stop offset="0" stop-color="#D4E9EF"/>
      <stop offset="0.006" stop-color="#D4E9EF"/>
      <stop offset="0.449" stop-color="#A9D4E3"/>
      <stop offset="1" stop-color="#92C3D9"/>
    </linearGradient>
    <linearGradient id="Gradient_38" gradientUnits="userSpaceOnUse" x1="294.229" y1="186.515" x2="247.418" y2="197.962" gradientTransform="matrix(1.3, 0, 0, 1.3, 0, 0)">
      <stop offset="0" stop-color="#D4E9EF"/>
      <stop offset="0.006" stop-color="#D4E9EF"/>
      <stop offset="0.449" stop-color="#A9D4E3"/>
      <stop offset="1" stop-color="#92C3D9"/>
    </linearGradient>
    <linearGradient id="Gradient_39" gradientUnits="userSpaceOnUse" x1="259.78" y1="179.85" x2="293.18" y2="174.436" gradientTransform="matrix(1.3, 0, 0, 1.3, 0, 0)">
      <stop offset="0" stop-color="#D4E9EF"/>
      <stop offset="0.006" stop-color="#D4E9EF"/>
      <stop offset="0.449" stop-color="#A9D4E3"/>
      <stop offset="1" stop-color="#92C3D9"/>
    </linearGradient>
    <radialGradient id="Gradient_40" gradientUnits="userSpaceOnUse" cx="222.138" cy="174.144" r="22.299" gradientTransform="matrix(1.3, 0, 0, 1.3, 0, 0)">
      <stop offset="0" stop-color="#C7D79B"/>
      <stop offset="0.5" stop-color="#9FC372"/>
      <stop offset="1" stop-color="#73A943"/>
    </radialGradient>
    <radialGradient id="Gradient_41" gradientUnits="userSpaceOnUse" cx="209.455" cy="187.055" r="19.558" gradientTransform="matrix(1.3, 0, 0, 1.3, 0, 0)">
      <stop offset="0" stop-color="#C7D79B"/>
      <stop offset="0.5" stop-color="#9FC372"/>
      <stop offset="1" stop-color="#73A943"/>
    </radialGradient>
    <radialGradient id="Gradient_42" gradientUnits="userSpaceOnUse" cx="225.896" cy="182.617" r="22.42" gradientTransform="matrix(1.3, 0, 0, 1.3, 0, 0)">
      <stop offset="0" stop-color="#C7D79B"/>
      <stop offset="0.5" stop-color="#9FC372"/>
      <stop offset="1" stop-color="#73A943"/>
    </radialGradient>
    <radialGradient id="Gradient_43" gradientUnits="userSpaceOnUse" cx="241.772" cy="186.6" r="19.799" gradientTransform="matrix(1.3, 0, 0, 1.3, 0, 0)">
      <stop offset="0" stop-color="#C7D79B"/>
      <stop offset="0.5" stop-color="#9FC372"/>
      <stop offset="1" stop-color="#73A943"/>
    </radialGradient>
    <linearGradient id="Gradient_44" gradientUnits="userSpaceOnUse" x1="185.898" y1="269.684" x2="253.596" y2="269.684" gradientTransform="matrix(1.3, 0, 0, 1.3, 0, 0)">
      <stop offset="0" stop-color="#F7E2E6"/>
      <stop offset="0.006" stop-color="#F7E2E6"/>
      <stop offset="0.449" stop-color="#EDC2CE"/>
      <stop offset="1" stop-color="#E2A8BF"/>
    </linearGradient>
    <linearGradient id="Gradient_45" gradientUnits="userSpaceOnUse" x1="186.091" y1="273.683" x2="253.381" y2="265.687" gradientTransform="matrix(1.3, 0, 0, 1.3, 0, 0)">
      <stop offset="0" stop-color="#D4E9EF"/>
      <stop offset="0.006" stop-color="#D4E9EF"/>
      <stop offset="0.449" stop-color="#A9D4E3"/>
      <stop offset="1" stop-color="#92C3D9"/>
    </linearGradient>
    <linearGradient id="Gradient_46" gradientUnits="userSpaceOnUse" x1="228.916" y1="280.487" x2="182.105" y2="291.934" gradientTransform="matrix(1.3, 0, 0, 1.3, 0, 0)">
      <stop offset="0" stop-color="#F7E2E6"/>
      <stop offset="0.006" stop-color="#F7E2E6"/>
      <stop offset="0.449" stop-color="#EDC2CE"/>
      <stop offset="1" stop-color="#E2A8BF"/>
    </linearGradient>
    <linearGradient id="Gradient_47" gradientUnits="userSpaceOnUse" x1="194.467" y1="273.822" x2="227.865" y2="268.408" gradientTransform="matrix(1.3, 0, 0, 1.3, 0, 0)">
      <stop offset="0" stop-color="#D4E9EF"/>
      <stop offset="0.006" stop-color="#D4E9EF"/>
      <stop offset="0.449" stop-color="#A9D4E3"/>
      <stop offset="1" stop-color="#92C3D9"/>
    </linearGradient>
    <linearGradient id="Gradient_48" gradientUnits="userSpaceOnUse" x1="188.133" y1="354.412" x2="244.132" y2="354.412" gradientTransform="matrix(1.3, 0, 0, 1.3, 0, 0)">
      <stop offset="0" stop-color="#F7E2E6"/>
      <stop offset="0.006" stop-color="#F7E2E6"/>
      <stop offset="0.449" stop-color="#EDC2CE"/>
      <stop offset="1" stop-color="#E2A8BF"/>
    </linearGradient>
    <linearGradient id="Gradient_49" gradientUnits="userSpaceOnUse" x1="188.309" y1="357.716" x2="243.957" y2="351.103" gradientTransform="matrix(1.3, 0, 0, 1.3, 0, 0)">
      <stop offset="0" stop-color="#D4E9EF"/>
      <stop offset="0.006" stop-color="#D4E9EF"/>
      <stop offset="0.449" stop-color="#A9D4E3"/>
      <stop offset="1" stop-color="#92C3D9"/>
    </linearGradient>
    <linearGradient id="Gradient_50" gradientUnits="userSpaceOnUse" x1="223.713" y1="363.343" x2="185.001" y2="372.809" gradientTransform="matrix(1.3, 0, 0, 1.3, 0, 0)">
      <stop offset="0" stop-color="#F7E2E6"/>
      <stop offset="0.006" stop-color="#F7E2E6"/>
      <stop offset="0.449" stop-color="#EDC2CE"/>
      <stop offset="1" stop-color="#E2A8BF"/>
    </linearGradient>
    <linearGradient id="Gradient_51" gradientUnits="userSpaceOnUse" x1="195.219" y1="357.831" x2="222.845" y2="353.353" gradientTransform="matrix(1.3, 0, 0, 1.3, 0, 0)">
      <stop offset="0" stop-color="#D4E9EF"/>
      <stop offset="0.006" stop-color="#D4E9EF"/>
      <stop offset="0.449" stop-color="#A9D4E3"/>
      <stop offset="1" stop-color="#92C3D9"/>
    </linearGradient>
    <radialGradient id="Gradient_52" gradientUnits="userSpaceOnUse" cx="205.695" cy="191.348" r="31.564" gradientTransform="matrix(1.3, 0, 0, 1.3, 0, 0)">
      <stop offset="0" stop-color="#D5745B"/>
      <stop offset="0.5" stop-color="#C4292B"/>
      <stop offset="1" stop-color="#AF2A2E"/>
    </radialGradient>
    <linearGradient id="Gradient_53" gradientUnits="userSpaceOnUse" x1="208.092" y1="184.458" x2="226.566" y2="183.674" gradientTransform="matrix(1.3, 0, 0, 1.3, 0, 0)">
      <stop offset="0" stop-color="#478442"/>
      <stop offset="0.011" stop-color="#478442"/>
      <stop offset="1" stop-color="#295131"/>
    </linearGradient>
    <radialGradient id="Gradient_54" gradientUnits="userSpaceOnUse" cx="194.933" cy="204.229" r="31.554" gradientTransform="matrix(1.3, 0, 0, 1.3, 0, 0)">
      <stop offset="0" stop-color="#D5745B"/>
      <stop offset="0.5" stop-color="#C4292B"/>
      <stop offset="1" stop-color="#AF2A2E"/>
    </radialGradient>
    <linearGradient id="Gradient_55" gradientUnits="userSpaceOnUse" x1="197.312" y1="197.336" x2="215.801" y2="196.551" gradientTransform="matrix(1.3, 0, 0, 1.3, 0, 0)">
      <stop offset="0" stop-color="#478442"/>
      <stop offset="0.011" stop-color="#478442"/>
      <stop offset="1" stop-color="#295131"/>
    </linearGradient>
    <radialGradient id="Gradient_56" gradientUnits="userSpaceOnUse" cx="224.785" cy="197.618" r="31.551" gradientTransform="matrix(1.3, 0, 0, 1.3, 0, 0)">
      <stop offset="0" stop-color="#D5745B"/>
      <stop offset="0.5" stop-color="#C4292B"/>
      <stop offset="1" stop-color="#AF2A2E"/>
    </radialGradient>
    <linearGradient id="Gradient_57" gradientUnits="userSpaceOnUse" x1="227.171" y1="190.724" x2="245.659" y2="189.939" gradientTransform="matrix(1.3, 0, 0, 1.3, 0, 0)">
      <stop offset="0" stop-color="#478442"/>
      <stop offset="0.011" stop-color="#478442"/>
      <stop offset="1" stop-color="#295131"/>
    </linearGradient>
    <linearGradient id="Gradient_58" gradientUnits="userSpaceOnUse" x1="206.693" y1="279.054" x2="274.395" y2="279.054" gradientTransform="matrix(1.3, 0, 0, 1.3, 0, 0)">
      <stop offset="0" stop-color="#D4E9EF"/>
      <stop offset="0.006" stop-color="#D4E9EF"/>
      <stop offset="0.449" stop-color="#A9D4E3"/>
      <stop offset="1" stop-color="#92C3D9"/>
    </linearGradient>
    <linearGradient id="Gradient_59" gradientUnits="userSpaceOnUse" x1="206.895" y1="283.05" x2="274.178" y2="275.055" gradientTransform="matrix(1.3, 0, 0, 1.3, 0, 0)">
      <stop offset="0" stop-color="#D4E9EF"/>
      <stop offset="0.006" stop-color="#D4E9EF"/>
      <stop offset="0.449" stop-color="#A9D4E3"/>
      <stop offset="1" stop-color="#92C3D9"/>
    </linearGradient>
    <linearGradient id="Gradient_60" gradientUnits="userSpaceOnUse" x1="249.716" y1="289.857" x2="202.909" y2="301.303" gradientTransform="matrix(1.3, 0, 0, 1.3, 0, 0)">
      <stop offset="0" stop-color="#D4E9EF"/>
      <stop offset="0.006" stop-color="#D4E9EF"/>
      <stop offset="0.449" stop-color="#A9D4E3"/>
      <stop offset="1" stop-color="#92C3D9"/>
    </linearGradient>
    <linearGradient id="Gradient_61" gradientUnits="userSpaceOnUse" x1="215.258" y1="283.189" x2="248.661" y2="277.775" gradientTransform="matrix(1.3, 0, 0, 1.3, 0, 0)">
      <stop offset="0" stop-color="#D4E9EF"/>
      <stop offset="0.006" stop-color="#D4E9EF"/>
      <stop offset="0.449" stop-color="#A9D4E3"/>
      <stop offset="1" stop-color="#92C3D9"/>
    </linearGradient>
    <linearGradient id="Gradient_62" gradientUnits="userSpaceOnUse" x1="302.93" y1="292.688" x2="340.963" y2="290.896" gradientTransform="matrix(1.3, 0, 0, 1.3, 0, 0)">
      <stop offset="0" stop-color="#F4E09E"/>
      <stop offset="0.5" stop-color="#EABD43"/>
      <stop offset="1" stop-color="#E2A03E"/>
    </linearGradient>
    <linearGradient id="Gradient_63" gradientUnits="userSpaceOnUse" x1="315.786" y1="279.032" x2="337.671" y2="278.103" gradientTransform="matrix(1.3, 0, 0, 1.3, 0, 0)">
      <stop offset="0" stop-color="#C7D79B"/>
      <stop offset="0.5" stop-color="#9FC372"/>
      <stop offset="1" stop-color="#73A943"/>
    </linearGradient>
    <linearGradient id="Gradient_64" gradientUnits="userSpaceOnUse" x1="275.398" y1="298.098" x2="313.432" y2="296.306" gradientTransform="matrix(1.3, 0, 0, 1.3, 0, 0)">
      <stop offset="0" stop-color="#F4E09E"/>
      <stop offset="0.5" stop-color="#EABD43"/>
      <stop offset="1" stop-color="#E2A03E"/>
    </linearGradient>
    <linearGradient id="Gradient_65" gradientUnits="userSpaceOnUse" x1="288.278" y1="284.444" x2="310.132" y2="283.516" gradientTransform="matrix(1.3, 0, 0, 1.3, 0, 0)">
      <stop offset="0" stop-color="#C7D79B"/>
      <stop offset="0.5" stop-color="#9FC372"/>
      <stop offset="1" stop-color="#73A943"/>
    </linearGradient>
  </defs>
  <g id="Layer_1">
    <path d="M616.312,368.997 C616.312,371.251 619.115,373.091 622.548,373.091 C626.001,373.091 628.793,371.251 628.793,368.997 L628.793,210.946 C628.793,208.681 626.001,206.853 622.548,206.853 C619.115,206.853 616.312,208.681 616.312,210.946 z" fill="url(#Gradient_1)" id="path71583"/>
    <path d="M625.178,369.17 C625.585,369.058 625.534,368.976 625.534,368.976 L625.534,210.956 C625.391,210.925 625.513,210.925 625.178,210.762 C624.68,210.437 623.705,210.083 622.548,210.083 C621.41,210.083 620.415,210.437 619.927,210.762 C619.49,210.874 619.541,210.925 619.541,210.956 L619.541,368.976 C619.684,368.976 619.602,368.976 619.927,369.17 C620.415,369.505 621.41,369.86 622.548,369.83 C623.705,369.86 624.68,369.505 625.178,369.17 z M613.062,368.976 L613.062,210.956 C613.427,205.705 618.18,203.654 622.548,203.603 C626.935,203.654 631.648,205.705 632.034,210.956 L632.034,368.976 C631.648,374.228 626.935,376.28 622.548,376.33 C618.18,376.28 613.448,374.228 613.062,368.976" fill="#7E8080" id="path71585"/>
    <path d="M625.686,470.53 C625.686,475.557 603.494,487.734 603.494,487.734 C603.494,487.734 437.145,449.038 419.138,409.926 L420.672,55.342 C423.099,34.988 543.877,69.012 596.903,98.669 C611.568,106.885 621.044,114.756 621.369,121.062 C621.369,121.062 625.686,416.072 625.686,470.53 z" fill="url(#Gradient_2)" id="path71587"/>
    <path d="M519.076,460.404 C558.36,473.464 595.797,482.564 602.987,484.271 C604.673,483.317 608.147,481.305 611.762,478.969 C616.656,475.962 621.968,471.524 622.426,470.306 C622.405,415.432 618.11,121.459 618.11,121.216 C618.485,117.854 609.842,109.322 595.309,101.512 C554.197,78.407 469.838,52.274 436.272,52.386 C431.854,52.386 428.35,52.884 426.288,53.676 C424.176,54.549 423.973,55.119 423.891,55.342 L422.367,409.217 C430.594,426.33 476.034,446.398 519.076,460.404 z M517.024,466.579 C472.966,451.659 426.856,433.144 416.163,411.278 L415.888,409.886 L417.422,54.956 C418.965,47.247 426.928,46.019 436.272,45.907 C472.297,46.019 555.881,72.13 598.477,95.824 C613.265,104.437 623.563,111.648 624.61,121.001 C624.61,121.022 628.926,415.98 628.926,470.519 C627.92,476.755 622.019,479.426 616.382,483.722 C610.695,487.491 605.099,490.547 605.028,490.587 L602.742,490.883 C602.681,490.883 561.031,481.204 517.024,466.579" fill="#373634" id="path71589"/>
    <path d="M133.866,650.138 C132.233,650.136 131.245,650.034 130.985,649.818 C126.029,645.694 129.035,540.749 131.29,523.555 C126.252,507.783 130.416,469.087 131.452,444.733 C124.872,418.946 132.366,54.001 132.366,54.001 C132.366,54.001 240.21,48.363 323.869,48.363 C376.379,48.363 419.375,50.587 420.154,57.82 C423.333,87.517 420.154,360.192 417.381,413.208 C414.274,426.106 419.86,460.495 414.599,490.587 C413.877,561.032 414.599,605.232 411.826,612.401 C405.262,616.483 163.406,650.14 133.866,650.138 z M394.936,506.888 L161.006,528.735 C161.006,528.735 184.012,536.944 231.123,536.945 C250.398,536.945 273.698,535.573 301.123,531.7 C376.857,520.975 394.936,506.888 394.936,506.888 z M395.992,429.66 L162.601,456.95 C162.601,456.95 182.079,460.442 218.559,460.442 C240.282,460.442 268.033,459.204 301.295,455.255 C377.234,446.246 395.992,429.66 395.992,429.66 z" fill="url(#Gradient_3)" id="path71591"/>
    <path d="M133.849,646.872 C161.251,647.005 388.223,615.469 409.165,609.862 C411.054,600.591 410.749,556.451 411.389,490.019 C413.217,479.548 413.715,468.407 413.685,457.824 C413.715,446.144 413.085,435.155 413.085,426.339 C413.085,420.805 413.278,416.143 414.122,413.024 C416.061,375.924 418.193,230.009 418.193,136.439 C418.193,97.551 417.788,67.458 416.944,58.551 C416.823,58.449 416.619,58.308 416.325,58.166 C415.441,57.637 413.685,57.018 411.359,56.438 C406.706,55.292 399.719,54.317 391.127,53.606 C373.881,52.153 350.097,51.584 323.873,51.614 C248.473,51.584 153.472,56.185 135.535,57.079 C135.067,80.783 131.96,239.099 131.96,346.399 C131.919,397.181 132.752,437.226 134.58,443.91 L131.442,444.722 L134.58,443.91 L134.692,444.864 C134.012,460.556 132.041,481.914 132.041,499.242 C132.041,509.011 132.701,517.543 134.367,522.539 L134.499,523.982 C133.168,533.884 131.492,576.235 131.492,608.868 C131.381,626.672 132.235,642.708 133.159,646.851 C133.362,646.862 133.585,646.872 133.849,646.872 z M132.366,653.301 C131.422,653.332 130.711,653.393 128.903,652.317 C125.765,648.588 126.476,644.821 125.602,637.042 C125.176,629.626 125.013,619.745 125.013,608.868 C125.013,576.592 126.577,535.661 127.979,523.83 C126.09,517.482 125.581,508.93 125.551,499.242 C125.581,481.63 127.481,460.404 128.181,444.996 C126.029,434.962 125.501,396.673 125.48,346.399 C125.48,230.151 129.116,53.931 129.116,53.931 C129.116,52.244 130.498,50.853 132.184,50.742 C132.204,50.742 240.053,45.094 323.873,45.094 C363.38,45.114 397.281,46.293 412.923,50.142 C417.96,51.666 422.093,52.346 423.374,57.474 C424.328,66.697 424.684,96.789 424.704,136.439 C424.684,230.182 422.591,375.924 420.529,414.01 C419.829,416.63 419.575,420.997 419.575,426.339 C419.575,434.85 420.174,445.931 420.215,457.824 C420.174,468.599 419.717,480.086 417.838,490.619 C417.015,561.387 418.081,604.358 414.831,613.581 L413.522,615.164 C409.794,617.044 394.763,619.278 370.256,623.208 C346.155,626.946 314.366,631.536 281.887,636.005 C216.785,644.933 149.226,653.332 133.849,653.362 C133.25,653.281 132.773,653.281 132.366,653.301" fill="#373634" id="path71593"/>
    <path d="M5.677,541.857 C9.801,550.774 131.817,648.223 131.817,648.223 L132.366,63.487 C132.366,63.487 9.598,5.708 7.028,17.693 C4.265,30.59 0.945,531.68 5.677,541.857 z" fill="url(#Gradient_4)" id="path71595"/>
    <path d="M5.658,541.836 L8.055,540.739 L7.983,540.749 z M72.342,595.887 C95.622,614.982 118.554,633.425 128.578,641.469 L129.106,65.58 C122.799,62.674 101.257,52.762 78.03,42.83 C50.263,30.967 20.059,19.105 10.725,19.297 C10.472,19.297 10.258,19.308 10.075,19.318 C8.49,36.005 6.47,235.26 6.51,382.149 C6.47,466.041 7.181,534.3 8.684,540.618 L8.653,540.618 C10.309,543.807 42.149,571.259 72.342,595.887 z M129.766,650.762 C129.766,650.762 99.256,626.387 68.219,600.885 C36.898,574.956 6.226,549.758 2.692,543.208 L2.712,543.197 C1.209,538.932 1.087,522.255 0.538,493.219 C0.163,464.598 0.021,425.568 0,382.149 C0.061,230.619 1.931,26.538 3.83,17.062 C4.845,13.203 8.42,12.767 10.725,12.797 C33.769,13.152 133.301,60.492 133.748,60.551 C134.885,61.06 135.586,62.208 135.586,63.487 L135.048,648.233 C135.048,649.462 134.337,650.599 133.219,651.148 C132.763,651.361 132.265,651.473 131.788,651.473 C131.066,651.473 130.355,651.239 129.766,650.762" fill="#373634" id="path71597"/>
    <path d="M132.366,65.884 C335.582,47.785 417.655,54.001 417.655,54.001 C417.655,54.001 254.231,4.632 244.085,3.362 C233.949,2.093 8.42,15.844 8.42,15.844 C8.42,15.844 128.791,56.744 132.366,65.884 z" fill="url(#Gradient_5)" id="path71599"/>
    <path d="M112.765,51.219 C123.023,56.022 130.061,58.673 133.727,62.501 C253.317,51.879 330.789,49.716 374.156,49.716 C381.154,49.716 387.267,49.767 392.529,49.858 C346.562,36.075 250.585,7.384 243.679,6.582 C243.537,6.551 242.653,6.5 241.515,6.5 C219.344,6.5 74.09,15.133 24.873,18.099 C46.982,25.818 87.77,40.371 112.765,51.219 z M132.346,65.863 L135.382,64.696 z M129.36,67.163 L129.35,67.174 C129.188,67.011 128.892,66.737 128.447,66.401 C127.552,65.751 126.191,64.909 124.435,63.955 C120.972,62.045 116.035,59.719 110.205,57.191 C98.505,52.112 83.139,46.141 67.874,40.494 C37.405,29.138 7.424,18.942 7.344,18.911 C5.881,18.424 4.976,16.94 5.19,15.418 C5.383,13.863 6.633,12.696 8.196,12.584 C8.277,12.584 214.114,0.04 241.515,-0 C242.826,-0 243.719,0.04 244.481,0.112 C255.663,1.615 418.347,50.833 418.59,50.883 C420.174,51.35 421.149,52.966 420.835,54.591 C420.529,56.235 419.056,57.353 417.391,57.242 C417.372,57.242 403.935,56.205 374.156,56.205 C330.799,56.205 253.013,58.388 132.651,69.113 L132.397,69.124 C131.076,69.113 129.888,68.362 129.36,67.163" fill="#373634" id="path71601"/>
    <g clip-path="url(#Clip_1)" id="g71605">
      <path d="M396.739,429.264 L396.739,461.763 L161.803,461.763 L161.803,429.264 L396.739,429.264 z" fill="#A6A6A6" id="image71603"/>
    </g>
    <g clip-path="url(#Clip_2)" id="g71609">
      <path d="M395.803,506.427 L395.803,537.984 L160.399,537.984 L160.399,506.427 L395.803,506.427 z" fill="#A6A6A6" id="image71607"/>
    </g>
    <path d="M136.093,443.95 C136.367,446.712 138.419,448.755 140.674,448.51 L413.481,419.626 C415.747,419.393 417.34,416.955 417.076,414.212 C416.813,411.45 414.751,409.399 412.497,409.653 L139.679,438.526 C137.424,438.771 135.819,441.208 136.093,443.95 z" fill="url(#Gradient_6)" id="path71611"/>
    <path d="M140.288,445.271 L140.318,445.271 L413.115,416.376 C413.115,416.376 413.797,416.071 413.826,414.792 L413.826,414.518 C413.685,413.187 412.841,412.851 412.841,412.851 L412.841,410.78 L412.811,412.883 L140.024,441.746 C140.004,441.746 139.313,442.101 139.292,443.361 L138.562,443.361 L136.093,443.96 L139.313,443.625 C139.455,444.967 140.267,445.271 140.288,445.271 z M140.288,451.76 C136.063,451.68 133.27,448.217 132.864,444.387 C132.752,443.768 132.792,443.382 132.792,443.361 C132.763,439.613 135.109,435.825 139.343,435.276 L411.501,406.555 C412.354,406.311 412.71,406.393 412.841,406.362 C417.106,406.474 419.93,409.987 420.316,414.436 C420.316,414.436 420.316,414.467 420.316,414.792 C420.337,418.509 418.051,422.297 413.797,422.846 L140.674,451.76 C140.654,451.76 140.654,451.76 140.288,451.76" fill="#7E8080" id="path71613"/>
    <path d="M134.702,519.96 C134.997,522.712 137.028,524.754 139.292,524.52 L412.1,495.524 C414.344,495.291 415.949,492.853 415.685,490.091 C415.411,487.348 413.36,485.307 411.115,485.541 L138.298,514.546 C136.042,514.791 134.438,517.208 134.702,519.96 z" fill="url(#Gradient_7)" id="path71615"/>
    <path d="M138.927,521.28 L411.735,492.305 C411.735,492.274 412.415,491.98 412.445,490.669 L412.445,490.395 C412.303,489.116 411.44,488.76 411.44,488.76 L138.653,517.786 C138.623,517.786 137.922,518.092 137.922,519.341 L137.302,519.341 L134.692,519.97 L137.922,519.614 C138.074,520.975 138.897,521.249 138.897,521.28 L138.948,521.27 z M138.897,527.77 C134.774,527.669 132.031,524.358 131.524,520.65 C131.34,519.888 131.422,519.392 131.422,519.341 C131.391,515.603 133.748,511.845 137.942,511.296 L410.547,482.31 C410.942,482.23 411.176,482.249 411.298,482.27 L411.44,482.27 C415.715,482.371 418.529,485.896 418.904,490.091 C418.904,490.121 418.904,490.344 418.904,490.669 C418.945,494.376 416.67,498.205 412.445,498.744 L139.14,527.77 L138.897,527.77" fill="#7E8080" id="path71617"/>
    <path d="M109.129,632.441 L110.51,56.368 C110.51,54.57 111.982,53.128 113.78,53.128 C115.578,53.128 117.02,54.591 117.02,56.388 L115.629,632.471 C115.629,634.258 114.166,635.71 112.359,635.71 C110.572,635.71 109.129,634.237 109.129,632.441" fill="#373634" id="path71619"/>
    <path d="M602.113,469.097 C596.781,481.996 422.053,428.97 426.054,400.309 L427.385,67.844 C430.066,43.489 599.442,102.244 600.773,129.462 z" fill="url(#Gradient_8)" id="path71621"/>
    <path d="M598.832,467.503 L597.502,129.614 C598.498,122.404 568.953,103.513 534.412,90.238 C499.951,76.324 460.149,65.234 440.873,65.285 C432.86,65.255 430.615,67.387 430.615,67.855 L429.274,400.33 L429.163,401.203 L429.163,401.254 C427.588,409.622 461.306,429.325 499.342,442.793 C537.225,456.95 579.81,467.879 595.156,467.828 C596.842,467.869 598.122,467.675 598.832,467.503 z M497.077,448.886 C458.748,433.885 424.247,418.692 422.692,401.254 C422.692,400.878 422.713,400.421 422.804,399.893 L424.135,67.499 C425.415,60.226 432.778,58.835 440.873,58.806 C462.16,58.867 501.749,70.13 536.818,84.226 C571.797,98.963 601.879,113.771 604.013,129.451 L605.342,469.087 L605.078,470.336 C602.732,474.419 599.279,474.063 595.156,474.308 C577.677,474.246 535.61,463.186 497.077,448.886" fill="#373634" id="path71623"/>
    <path d="M530.004,139.821 C530.735,151.663 523.89,161.759 514.729,162.379 C505.567,162.987 497.524,153.878 496.792,142.025 C496.051,130.183 502.897,120.087 512.067,119.479 C521.229,118.869 529.252,127.969 530.004,139.821 z" fill="url(#Gradient_9)" id="path71625"/>
    <path d="M512.89,121.043 C512.677,121.043 512.443,121.073 512.149,121.104 C504.582,121.51 498.326,129.776 498.326,140.269 C498.326,140.767 498.356,141.314 498.388,141.904 C499.038,152.781 506.217,160.855 513.835,160.774 C514.119,160.774 514.363,160.774 514.606,160.754 C522.123,160.286 528.399,152.039 528.399,141.548 C528.399,141.02 528.399,140.451 528.379,139.912 C527.667,129.067 520.579,121.043 513.002,121.043 z M495.167,142.126 C495.138,141.528 495.076,140.919 495.076,140.269 C495.076,128.609 502.024,118.564 511.895,117.854 C512.2,117.823 512.535,117.793 512.89,117.793 C522.874,117.874 530.797,127.624 531.609,139.699 L530.014,139.801 L531.609,139.75 C531.609,140.349 531.649,140.949 531.649,141.548 C531.649,153.187 524.681,163.232 514.83,164.004 C514.475,164.004 514.14,164.024 513.835,164.024 C503.851,163.943 495.879,154.172 495.167,142.126" fill="#373634" id="path71627"/>
    <path d="M495.372,129.462 C495.372,141.335 487.916,150.953 478.725,150.953 C469.554,150.953 462.11,141.335 462.11,129.462 C462.11,117.589 469.554,107.971 478.725,107.971 C487.916,107.971 495.372,117.589 495.372,129.462 z" fill="url(#Gradient_10)" id="path71629"/>
    <path d="M463.724,129.451 C463.724,140.725 470.792,149.297 478.715,149.328 C486.647,149.297 493.715,140.725 493.715,129.451 C493.715,118.179 486.647,109.607 478.715,109.576 C470.792,109.607 463.724,118.179 463.724,129.451 z M460.474,129.451 C460.494,116.98 468.304,106.437 478.715,106.357 C489.135,106.437 496.965,116.98 496.965,129.451 L496.997,129.451 C496.965,141.934 489.135,152.496 478.715,152.578 C468.304,152.467 460.494,141.934 460.474,129.451" fill="#373634" id="path71631"/>
    <path d="M510.626,145.235 C510.626,157.108 503.161,166.735 493.99,166.735 C484.809,166.735 477.354,157.108 477.354,145.235 C477.354,133.372 484.809,123.744 493.99,123.744 C503.161,123.744 510.626,133.372 510.626,145.235 z" fill="url(#Gradient_11)" id="path71633"/>
    <path d="M478.968,145.214 C478.968,156.488 486.038,165.07 493.99,165.091 C501.912,165.07 508.98,156.488 508.98,145.214 C508.98,133.961 501.912,125.369 493.99,125.369 C486.038,125.369 478.968,133.961 478.968,145.214 z M475.718,145.214 C475.718,132.762 483.539,122.2 493.99,122.119 C504.39,122.2 512.23,132.743 512.251,145.214 C512.23,157.726 504.39,168.259 493.99,168.341 C483.539,168.259 475.718,157.697 475.718,145.214" fill="#373634" id="path71635"/>
    <path d="M471.818,129.472 C471.818,141.345 464.354,150.962 455.173,150.962 C445.991,150.962 438.537,141.345 438.537,129.472 C438.537,117.599 445.991,107.982 455.173,107.982 C464.354,107.982 471.818,117.599 471.818,129.472 z" fill="url(#Gradient_12)" id="path71637"/>
    <path d="M440.141,129.462 C440.141,140.735 447.21,149.297 455.163,149.328 C463.094,149.297 470.163,140.735 470.163,129.462 L470.193,129.462 C470.163,118.209 463.094,109.617 455.163,109.617 C447.21,109.617 440.141,118.209 440.141,129.462 z M436.891,129.462 C436.931,116.98 444.731,106.448 455.163,106.367 C465.582,106.448 473.413,116.98 473.413,129.462 L473.443,129.462 C473.413,141.955 465.582,152.496 455.163,152.578 C444.731,152.496 436.931,141.955 436.891,129.462" fill="#373634" id="path71639"/>
    <path d="M574.864,209.726 L434.819,156.692 L434.819,126.608 L574.864,179.624 z" fill="url(#Gradient_13)" id="path71641"/>
    <path d="M436.435,155.563 L573.239,207.36 L573.239,180.731 L436.435,128.955 z M574.854,209.707 L575.423,208.183 z M574.265,211.241 L434.23,158.214 L433.185,156.681 L433.185,126.598 C433.185,126.091 433.438,125.572 433.895,125.268 C434.301,124.963 434.89,124.882 435.409,125.074 L575.423,178.11 L576.468,179.634 L576.468,209.707 C576.468,210.266 576.215,210.753 575.778,211.047 C575.504,211.241 575.159,211.351 574.834,211.351 C574.64,211.351 574.448,211.311 574.265,211.241" fill="#373634" id="path71643"/>
    <path d="M574.864,179.624 L596.578,176.76 L596.578,205.421 L574.864,209.726 z" fill="url(#Gradient_14)" id="path71645"/>
    <path d="M576.459,207.736 L594.923,204.08 L594.923,178.608 L576.479,181.046 z M573.828,210.967 C573.442,210.661 573.229,210.205 573.229,209.737 L573.229,179.624 C573.229,178.801 573.828,178.121 574.651,178.009 L596.344,175.145 C596.812,175.084 597.279,175.217 597.624,175.521 C597.99,175.856 598.203,176.283 598.203,176.76 L598.203,205.41 C598.203,206.183 597.624,206.862 596.873,207.005 L575.168,211.321 L574.864,211.342 C574.488,211.342 574.132,211.22 573.828,210.967" fill="#373634" id="path71647"/>
    <path d="M457.285,203.857 L457.285,187.18 C457.285,184.701 454.899,182.692 451.953,182.692 C449.007,182.692 446.631,184.701 446.631,187.18 L446.631,203.857 C441.665,208.549 438.191,219.212 438.191,228.669 C438.191,241.251 444.346,246.98 451.953,246.98 C459.56,246.98 465.725,241.251 465.725,228.669 C465.725,219.212 462.231,208.559 457.285,203.857 z" fill="url(#Gradient_15)" id="path71649"/>
    <path d="M448.215,187.18 L448.215,203.857 L447.738,205.024 C443.31,209.118 439.735,219.599 439.816,228.658 C439.959,240.755 445.27,245.254 451.942,245.335 C458.585,245.254 463.927,240.755 464.09,228.658 C464.14,219.599 460.586,209.148 456.138,205.024 L457.285,203.857 L458.89,203.857 L457.285,203.857 L456.138,205.024 L455.64,203.857 L455.64,187.18 C455.64,185.809 454.198,184.306 451.942,184.306 C449.709,184.306 448.256,185.809 448.215,187.18 z M436.566,228.658 C436.606,219.111 439.797,208.599 445.006,203.167 L445.006,187.18 C445.037,183.574 448.287,181.056 451.942,181.056 C455.568,181.056 458.849,183.574 458.89,187.18 L458.89,203.176 C464.06,208.63 467.279,219.111 467.36,228.658 C467.319,241.739 460.485,248.585 451.942,248.585 C443.391,248.585 436.566,241.739 436.566,228.658" fill="#373634" id="path71651"/>
    <path d="M445.514,178.1 L457.955,178.1 L457.955,190.044 L445.514,190.044 z" fill="url(#Gradient_16)" id="path71653"/>
    <path d="M447.099,188.409 L456.33,188.409 L456.33,179.725 L447.099,179.725 z M457.945,190.044 L457.945,188.409 z M445.514,191.649 C445.056,191.649 444.651,191.486 444.347,191.192 C444.041,190.887 443.879,190.481 443.879,190.044 L443.879,178.091 C443.879,177.654 444.041,177.247 444.347,176.943 C444.651,176.648 445.077,176.485 445.514,176.485 L457.945,176.485 C458.372,176.485 458.778,176.648 459.082,176.943 C459.377,177.268 459.58,177.654 459.58,178.091 L459.58,190.044 C459.58,190.45 459.377,190.867 459.082,191.192 C458.778,191.486 458.372,191.649 457.945,191.649 L445.514,191.649" fill="#373634" id="path71655"/>
    <path d="M480.106,249.376 L457.701,243.294 L458.727,216.004 L481.701,221.742 z" fill="url(#Gradient_17)" id="path71657"/>
    <path d="M459.356,242.055 L478.573,247.264 L479.974,223.001 L460.251,218.055 z M480.097,249.376 L480.513,247.783 z M479.669,250.931 L457.254,244.868 C456.524,244.644 456.026,243.994 456.076,243.222 L457.092,215.933 C457.123,215.435 457.356,214.998 457.742,214.704 C458.138,214.399 458.647,214.297 459.113,214.43 L482.087,220.158 C482.838,220.35 483.347,221.061 483.295,221.833 L481.711,249.458 C481.68,249.946 481.437,250.383 481.061,250.676 C480.787,250.891 480.441,250.992 480.106,250.992 C479.954,250.992 479.812,250.961 479.669,250.931" fill="#373634" id="path71659"/>
    <path d="M500.367,248.697 L478.41,250.189 L481.051,221.204 L502.826,219.284 z" fill="url(#Gradient_18)" id="path71661"/>
    <path d="M482.524,222.717 L480.198,248.433 L498.865,247.162 L501.028,221.082 z M477.231,251.326 C476.897,250.971 476.735,250.505 476.795,250.047 L479.405,221.051 C479.487,220.259 480.097,219.66 480.888,219.579 L502.663,217.669 C503.14,217.608 503.638,217.801 503.953,218.126 C504.309,218.461 504.472,218.919 504.42,219.417 L501.992,248.819 C501.912,249.642 501.241,250.271 500.46,250.321 L478.512,251.794 L478.41,251.794 C477.953,251.794 477.537,251.632 477.231,251.326" fill="#373634" id="path71663"/>
    <path d="M481.03,221.325 L458.951,215.688 L481.325,214.643 L503.14,219.518 z" fill="url(#Gradient_19)" id="path71665"/>
    <path d="M469.879,216.806 L481.131,219.67 L492.405,218.735 L481.406,216.258 z M481.02,221.335 L480.614,222.889 L458.524,217.262 C457.763,217.08 457.244,216.338 457.326,215.517 C457.406,214.724 458.056,214.094 458.86,214.063 L481.67,213.058 L503.465,217.923 C504.257,218.085 504.797,218.817 504.755,219.619 C504.685,220.401 504.065,221.061 503.242,221.143 L481.163,222.941 L481.02,221.335" fill="#373634" id="path71667"/>
    <path d="M574.864,305.724 L435.764,253.175 L435.764,211.149 L574.864,263.697 z" fill="url(#Gradient_20)" id="path71669"/>
    <path d="M437.389,252.048 L573.229,303.368 L573.229,264.814 L437.389,213.495 z M574.864,305.734 L575.442,304.2 z M574.285,307.237 L435.165,254.699 L434.129,253.166 L434.129,211.149 C434.129,210.631 434.382,210.113 434.84,209.808 C435.256,209.504 435.825,209.422 436.323,209.616 L575.442,262.184 L576.479,263.687 L576.479,305.734 C576.479,306.251 576.225,306.77 575.767,307.074 C575.504,307.258 575.179,307.349 574.874,307.349 C574.672,307.349 574.488,307.308 574.285,307.237" fill="#373634" id="path71671"/>
    <path d="M574.864,263.697 L597.96,259.696 L597.96,299.721 L574.864,305.724 z" fill="url(#Gradient_21)" id="path71673"/>
    <path d="M576.489,303.611 L596.335,298.442 L596.335,261.605 L576.489,265.058 z M573.859,307.004 C573.452,306.699 573.218,306.232 573.218,305.724 L573.218,263.697 C573.218,262.895 573.788,262.214 574.569,262.083 L597.665,258.092 C598.131,258.01 598.619,258.142 599.015,258.447 C599.372,258.771 599.554,259.208 599.554,259.696 L599.554,299.711 C599.554,300.443 599.066,301.103 598.355,301.285 L575.26,307.298 L574.904,307.349 C574.539,307.349 574.163,307.226 573.859,307.004" fill="#373634" id="path71675"/>
    <path d="M464.029,317.626 L464.029,295.081 C464.029,291.729 460.799,289.017 456.817,289.017 C452.826,289.017 449.606,291.729 449.606,295.081 L449.606,317.626 C442.904,323.985 438.191,338.386 438.191,351.183 C438.191,368.216 446.529,375.955 456.817,375.955 C467.097,375.955 475.435,368.216 475.435,351.183 C475.435,338.386 470.731,323.995 464.029,317.626 z" fill="url(#Gradient_22)" id="path71677"/>
    <path d="M451.212,295.08 L451.212,317.626 L450.724,318.795 C444.529,324.554 439.735,338.783 439.797,351.194 C439.968,367.708 447.474,374.208 456.798,374.319 C466.141,374.208 473.647,367.708 473.81,351.194 C473.86,338.783 469.066,324.584 462.891,318.795 L464.009,317.626 L465.624,317.626 L464.009,317.626 L462.891,318.795 L462.404,317.626 L462.404,295.08 C462.374,292.846 460.099,290.621 456.798,290.621 C453.497,290.621 451.212,292.846 451.212,295.08 z M436.547,351.194 C436.606,338.305 441.015,324.086 447.962,316.967 L447.962,295.08 C448.013,290.601 452.105,287.382 456.798,287.382 C461.469,287.382 465.592,290.601 465.624,295.08 L465.624,316.946 C472.57,324.076 476.999,338.285 477.029,351.194 C477.029,368.693 468.02,377.538 456.798,377.559 C445.554,377.538 436.576,368.693 436.547,351.194" fill="#373634" id="path71679"/>
    <path d="M448.093,282.801 L464.923,282.801 L464.923,298.949 L448.093,298.949 z" fill="url(#Gradient_23)" id="path71681"/>
    <path d="M449.678,297.324 L463.288,297.324 L463.288,284.417 L449.678,284.417 z M464.923,298.939 L464.923,297.324 z M448.093,300.574 C447.616,300.574 447.24,300.401 446.926,300.087 C446.622,299.783 446.459,299.376 446.459,298.939 L446.459,282.801 C446.459,282.364 446.622,281.937 446.926,281.633 C447.24,281.329 447.656,281.167 448.093,281.167 L464.923,281.167 C465.349,281.167 465.755,281.329 466.06,281.663 C466.375,281.958 466.538,282.364 466.538,282.801 L466.538,298.939 C466.538,299.376 466.375,299.783 466.06,300.087 C465.755,300.401 465.349,300.574 464.923,300.574 L448.093,300.574" fill="#373634" id="path71683"/>
    <path d="M570.934,426.288 L548.051,416.072 L546.507,342.449 L569.888,351.589 z" fill="url(#Gradient_24)" id="path71685"/>
    <path d="M549.615,414.995 L569.257,423.76 L568.273,352.707 L548.163,344.846 z M570.242,427.751 L547.381,417.564 L546.426,416.112 L544.873,342.489 C544.873,341.942 545.106,341.423 545.553,341.119 C546.01,340.794 546.559,340.743 547.076,340.925 L570.466,350.056 L571.502,351.559 L572.538,426.248 L570.934,426.279 L571.593,424.806 L570.934,426.279 L572.538,426.248 C572.538,426.826 572.304,427.345 571.806,427.649 C571.542,427.822 571.238,427.904 570.934,427.904 C570.7,427.904 570.476,427.853 570.242,427.751" fill="#373634" id="path71687"/>
    <path d="M591.013,418.946 L569.309,428.97 L569.206,350.33 L590.677,339.23 z" fill="url(#Gradient_25)" id="path71689"/>
    <path d="M570.801,351.306 L570.903,426.421 L589.377,417.899 L589.052,341.88 z M568.415,430.321 C567.957,430.026 567.684,429.529 567.684,428.96 L567.581,350.32 L568.455,348.868 L589.926,337.776 C590.413,337.503 591.013,337.563 591.51,337.837 C591.977,338.133 592.272,338.65 592.272,339.219 L592.627,418.925 L591.673,420.408 L569.979,430.433 C569.765,430.544 569.522,430.595 569.309,430.595 C568.984,430.595 568.679,430.494 568.415,430.321" fill="#373634" id="path71691"/>
    <path d="M569.206,350.666 L546.669,341.555 L568.851,332.597 L591.023,339.768 z" fill="url(#Gradient_26)" id="path71693"/>
    <path d="M550.976,341.555 L569.115,348.868 L586.716,340.072 L568.902,334.313 z M569.187,350.645 L569.797,349.151 z M546.051,343.058 C545.422,342.814 545.044,342.205 545.044,341.555 C545.044,340.895 545.422,340.296 546.051,340.051 L568.242,331.084 L569.328,331.063 L591.52,338.224 C592.14,338.407 592.587,338.985 592.638,339.635 C592.688,340.296 592.332,340.925 591.734,341.22 L569.928,352.097 L568.598,352.158 L546.051,343.058" fill="#373634" id="path71695"/>
    <path d="M574.864,431.844 L434.819,374.989 L434.819,332.962 L574.864,389.808 z" fill="url(#Gradient_27)" id="path71697"/>
    <path d="M436.435,373.893 L573.239,429.426 L573.239,390.905 L436.435,335.36 z M574.854,431.834 L575.474,430.331 z M574.244,433.337 L434.2,376.483 L433.185,374.98 L433.185,332.962 C433.185,332.414 433.468,331.926 433.895,331.592 C434.342,331.297 434.911,331.236 435.429,331.449 L575.474,388.284 L576.468,389.818 L576.468,431.834 C576.468,432.383 576.215,432.87 575.757,433.174 C575.484,433.368 575.168,433.469 574.864,433.469 C574.651,433.469 574.448,433.419 574.244,433.337" fill="#373634" id="path71699"/>
    <path d="M574.864,389.808 L599.34,385.806 L599.34,425.832 L574.864,431.844 z" fill="url(#Gradient_28)" id="path71701"/>
    <path d="M576.479,429.762 L597.705,424.551 L597.705,387.716 L576.479,391.179 z M573.849,433.104 C573.473,432.799 573.249,432.332 573.249,431.844 L573.249,389.818 C573.249,388.995 573.798,388.314 574.59,388.203 L599.076,384.181 C599.534,384.11 600.031,384.242 600.387,384.567 C600.742,384.871 600.955,385.329 600.955,385.796 L600.955,425.832 C600.955,426.573 600.438,427.223 599.726,427.396 L575.25,433.408 C575.107,433.438 574.965,433.459 574.834,433.459 C574.467,433.459 574.123,433.337 573.849,433.104" fill="#373634" id="path71703"/>
    <path d="M396.713,396.012 L396.713,57.82 C396.713,56.917 397.424,56.185 398.328,56.185 C399.231,56.185 399.963,56.917 399.963,57.82 L399.963,396.012 C399.963,396.917 399.231,397.628 398.328,397.628 C397.424,397.628 396.713,396.917 396.713,396.012" fill="#373634" id="path71705"/>
    <path d="M396.348,394.642 L132.915,290.043 C132.092,289.718 131.686,288.762 132.021,287.941 C132.336,287.097 133.301,286.692 134.134,287.017 L397.547,391.646 C398.359,391.971 398.795,392.895 398.44,393.748 C398.197,394.368 397.576,394.754 396.926,394.754 C396.734,394.754 396.53,394.723 396.348,394.642" fill="#373634" id="path71707"/>
    <path d="M408.038,182.488 L202.851,139.497 L133.554,146.667 L133.544,202.557 L148.789,214.012 z" fill="url(#Gradient_29)" id="path71709"/>
    <path d="M135.149,148.119 L135.149,201.744 L149.205,212.307 L398.125,182.051 L203.024,141.101 z M147.804,215.293 L132.56,203.836 L131.919,202.536 L131.919,146.667 C131.919,145.824 132.539,145.133 133.362,145.051 L203.186,137.901 L408.352,180.904 L408.027,182.478 L408.352,180.904 C409.144,181.067 409.692,181.776 409.631,182.559 C409.612,183.361 409.013,184.011 408.21,184.093 L148.962,215.628 L147.804,215.293" fill="#373634" id="path71711"/>
    <path d="M408.038,324.371 L208.406,268.481 L133.544,275.631 L133.544,344.43 L148.789,355.885 z" fill="url(#Gradient_30)" id="path71713"/>
    <path d="M135.149,277.083 L135.149,343.626 L149.205,354.18 L399.801,323.731 L208.538,270.075 z M147.803,357.175 L132.56,345.719 L131.889,344.439 L131.889,275.642 C131.889,274.798 132.539,274.087 133.362,273.996 L208.832,266.907 L408.474,322.807 L408.027,324.36 L408.474,322.807 C409.205,322.999 409.724,323.7 409.631,324.493 C409.591,325.255 408.992,325.884 408.21,325.966 L148.962,357.5 L147.803,357.175" fill="#373634" id="path71715"/>
    <path d="M408.038,182.487 L151.562,208.285 L151.562,219.751 L408.038,193.955 z" fill="url(#Gradient_31)" id="path71717"/>
    <path d="M153.176,209.747 L153.176,217.933 L406.402,192.482 L406.402,184.285 z M150.444,220.939 C150.119,220.635 149.926,220.198 149.926,219.731 L149.926,208.274 C149.926,207.432 150.546,206.751 151.399,206.66 L407.875,180.862 C408.312,180.801 408.779,180.964 409.124,181.269 C409.46,181.594 409.652,182.042 409.652,182.498 L409.652,193.955 C409.652,194.776 409.002,195.478 408.179,195.559 L151.703,221.346 L151.521,221.356 C151.135,221.356 150.749,221.213 150.444,220.939" fill="#373634" id="path71719"/>
    <path d="M405.265,322.929 L150.18,348.716 L150.18,360.182 L405.265,334.395 z" fill="url(#Gradient_32)" id="path71721"/>
    <path d="M151.785,350.158 L151.785,358.374 L403.64,332.892 L403.64,324.726 z M149.084,361.38 C148.749,361.075 148.555,360.638 148.555,360.182 L148.555,348.716 C148.555,347.872 149.165,347.192 150.007,347.11 L405.092,321.304 C405.549,321.243 406.016,321.416 406.341,321.71 C406.687,322.035 406.879,322.482 406.879,322.938 L406.879,334.395 C406.879,335.208 406.24,335.919 405.406,336.01 L150.332,361.786 L150.129,361.796 C149.734,361.796 149.357,361.655 149.084,361.38" fill="#373634" id="path71723"/>
    <path d="M131.919,423.394 C131.817,422.5 132.457,421.708 133.362,421.626 L398.155,394.408 C399.06,394.296 399.851,394.946 399.942,395.85 C400.054,396.724 399.394,397.546 398.49,397.618 L133.687,424.846 L133.484,424.857 C132.671,424.857 131.99,424.237 131.919,423.394" fill="#373634" id="path71725"/>
    <path d="M133.311,432.007 C133.219,431.103 133.86,430.31 134.763,430.23 L414.791,400.106 C415.665,400.035 416.477,400.685 416.568,401.558 C416.67,402.462 416.02,403.255 415.116,403.356 L135.088,433.449 L134.895,433.459 C134.092,433.459 133.413,432.839 133.311,432.007" fill="#373634" id="path71727"/>
    <path d="M151.562,208.285 L133.544,202.557 L132.153,214.012 L151.562,219.751 z" fill="url(#Gradient_33)" id="path71729"/>
    <path d="M133.92,212.835 L149.937,217.568 L149.937,209.462 L134.895,204.669 z M151.085,221.295 L131.686,215.587 C130.924,215.333 130.426,214.601 130.517,213.81 L131.899,202.354 C131.95,201.867 132.235,201.43 132.64,201.185 C133.047,200.911 133.544,200.86 134.022,200.993 L152.039,206.731 L151.551,208.285 L152.039,206.731 L153.176,208.285 L153.176,219.751 C153.176,220.259 152.942,220.726 152.537,221.051 C152.252,221.255 151.906,221.356 151.551,221.356 C151.399,221.356 151.237,221.346 151.085,221.295" fill="#373634" id="path71731"/>
    <path d="M151.562,350.158 L133.544,344.43 L132.153,355.885 L151.562,361.613 z" fill="url(#Gradient_34)" id="path71733"/>
    <path d="M133.92,354.708 L149.937,359.441 L149.937,351.356 L134.895,346.572 z M151.085,363.168 L131.686,357.449 C130.924,357.206 130.426,356.464 130.517,355.683 L131.899,344.226 C131.95,343.738 132.235,343.322 132.64,343.058 C133.047,342.784 133.544,342.723 134.022,342.866 L152.039,348.604 L151.551,350.158 L152.039,348.604 L153.176,350.158 L153.176,361.613 C153.176,362.132 152.942,362.599 152.537,362.924 C152.252,363.126 151.906,363.238 151.551,363.238 C151.399,363.238 151.237,363.219 151.085,363.168" fill="#373634" id="path71735"/>
    <path d="M569.206,350.666 L558.198,337.624 L546.669,341.555 L568.851,332.597 L579.739,327.519 L591.023,339.768 z" fill="url(#Gradient_35)" id="path71737"/>
    <path d="M569.592,348.624 L588.351,339.249 L579.323,329.489 L569.43,334.11 L560.422,337.746 z M569.187,350.666 L570.426,349.609 z M567.957,351.711 L557.649,339.524 L547.188,343.099 C546.335,343.373 545.441,342.936 545.116,342.113 C544.812,341.301 545.217,340.376 546.051,340.042 L568.151,331.135 L579.028,326.057 L580.938,326.401 L592.222,338.65 C592.547,339.036 592.718,339.544 592.606,340.042 C592.526,340.56 592.201,340.996 591.724,341.22 L569.928,352.118 C569.685,352.23 569.451,352.291 569.187,352.291 C568.719,352.291 568.263,352.087 567.957,351.711" fill="#373634" id="path71739"/>
    <path d="M315.727,132.935 C318.165,134.56 315.869,135.708 310.487,136.175 L251.388,141.426 C246.015,141.904 241.262,141.396 238.804,139.771 L229.653,133.657 C227.215,132.042 229.531,130.905 234.914,130.426 L294.013,125.167 C299.365,124.699 304.139,125.207 306.576,126.832 z" fill="url(#Gradient_36)" id="path71741"/>
    <path d="M238.417,139.862 L229.247,133.748 C228.648,133.351 228.332,132.967 228.262,132.621 C228.017,131.462 230.659,130.62 234.842,130.274 L293.942,125.013 C294.277,124.994 294.592,124.963 294.938,124.943 C300.026,124.587 304.597,125.156 306.973,126.741 L316.124,132.844 L315.727,132.935 L315.322,133.026 L306.17,126.912 C303.966,125.45 299.832,124.933 294.988,125.258 C294.684,125.278 294.379,125.298 294.043,125.329 L234.944,130.58 C230.923,130.955 228.952,131.605 229.145,132.56 C229.197,132.864 229.49,133.199 230.049,133.575 L239.21,139.689 C241.424,141.151 245.548,141.67 250.402,141.345 C250.687,141.324 251.012,141.314 251.337,141.274 L310.436,136.033 C314.448,135.658 316.428,134.976 316.235,134.033 C316.174,133.738 315.89,133.403 315.322,133.026 L315.727,132.935 L316.124,132.844 C316.732,133.25 317.048,133.626 317.129,133.982 C317.382,135.139 314.712,135.972 310.548,136.328 L251.428,141.579 C251.113,141.609 250.778,141.639 250.453,141.66 L250.423,141.66 C245.335,142.005 240.764,141.436 238.417,139.862 z" fill="url(#Gradient_37)" id="path71743"/>
    <path d="M318.266,166.106 L317.88,134.408 L316.681,134.438 C316.367,135.221 314.123,135.799 310.487,136.124 L251.367,141.345 C245.994,141.822 241.262,141.406 238.885,139.994 L229.938,134.611 C229.074,134.073 228.16,133.21 228.485,132.804 L227.612,133.311 C227.612,133.311 227.5,165.547 228.851,167.417 C229.46,168.238 238.235,173.094 238.235,173.094 C240.52,174.088 245.335,174.271 250.869,173.794 L311.756,168.483 C317.281,167.995 318.764,167.355 318.266,166.106 z" fill="url(#Gradient_38)" id="path71745"/>
    <path d="M249.406,173.744 C249.864,173.712 250.341,173.672 250.809,173.642 L311.695,168.331 C316.835,167.853 318.023,167.385 317.89,166.391 L317.819,166.157 L318.266,166.106 L317.81,166.136 L317.434,134.571 L317.027,134.581 C316.438,135.404 314.022,135.972 310.538,136.276 L251.417,141.508 C251.052,141.538 250.687,141.558 250.351,141.579 C245.293,141.934 240.794,141.457 238.489,140.075 L229.551,134.703 C228.942,134.326 228.302,133.799 228.068,133.332 L228.059,133.332 C228.038,133.769 228.028,162.816 228.515,165.222 C228.688,166.106 228.952,166.908 229.298,167.355 C229.836,168.117 238.601,173.001 238.601,172.992 C240.52,173.835 244.563,174.079 249.406,173.744 z M237.86,173.185 C237.849,173.174 229.115,168.36 228.435,167.467 C228.068,166.969 227.815,166.187 227.622,165.283 C227.104,162.673 227.165,133.332 227.165,133.332 L227.154,133.292 L227.215,133.25 L228.11,132.722 L228.912,132.824 L228.872,133.068 C228.942,133.463 229.653,134.104 230.343,134.52 L239.281,139.893 C241.384,141.162 245.466,141.588 250.27,141.274 C250.615,141.254 250.972,141.223 251.316,141.193 L310.405,135.962 C314.001,135.658 315.981,135.099 316.235,134.429 L316.297,134.286 L316.702,134.267 L318.306,134.235 L318.703,166.085 L318.774,166.33 C319.059,167.497 316.976,168.208 311.806,168.635 L250.92,173.947 C250.423,173.987 249.945,174.018 249.467,174.058 C244.472,174.394 240.114,174.16 237.86,173.185" fill="#373634" id="path71747"/>
    <path d="M310.487,136.175 L251.388,141.426 C246.015,141.904 241.262,141.396 238.803,139.771 L229.653,133.657 C227.215,132.042 229.521,130.905 234.904,130.426 L294.013,125.167 C299.365,124.699 304.139,125.207 306.576,126.832 L315.727,132.935 C318.165,134.56 315.86,135.708 310.487,136.175 z M317.048,133.078 L307.541,126.598 C305.023,124.882 300.076,124.333 294.531,124.821 L233.502,130.255 C227.967,130.751 225.59,131.941 228.11,133.667 L237.626,140.146 C240.144,141.863 245.08,142.411 250.626,141.924 L311.665,136.491 C317.2,135.993 319.576,134.794 317.048,133.078" fill="url(#Gradient_39)" id="path71749"/>
    <path d="M294.043,125.329 L234.944,130.58 C230.923,130.956 228.952,131.605 229.145,132.56 C229.197,132.864 229.49,133.199 230.049,133.575 L239.2,139.689 C241.424,141.151 245.548,141.67 250.402,141.345 C250.687,141.324 251.012,141.305 251.337,141.274 L310.436,136.033 C314.448,135.658 316.417,134.976 316.235,134.033 C316.164,133.738 315.89,133.403 315.322,133.026 L306.17,126.912 C303.966,125.45 299.832,124.933 294.988,125.258 C294.663,125.278 294.379,125.298 294.043,125.329 z M237.24,140.228 L227.713,133.758 C227.104,133.322 226.749,132.925 226.677,132.56 C226.403,131.342 229.145,130.468 233.451,130.101 L294.48,124.669 C294.826,124.637 295.14,124.608 295.455,124.587 C300.747,124.221 305.5,124.842 307.938,126.507 L317.443,132.997 L317.048,133.078 L316.662,133.169 L307.145,126.68 C304.819,125.116 300.534,124.567 295.537,124.901 L295.364,124.912 C300.279,124.618 304.677,125.196 306.973,126.741 L316.124,132.844 C316.732,133.25 317.048,133.626 317.129,133.982 C317.382,135.139 314.712,135.972 310.548,136.328 L251.428,141.579 C251.113,141.609 250.778,141.63 250.463,141.66 C245.344,142.005 240.774,141.447 238.417,139.862 L229.247,133.748 C228.648,133.351 228.332,132.986 228.262,132.621 C228.038,131.605 230.009,130.854 233.279,130.437 C229.328,130.812 227.367,131.513 227.572,132.499 C227.622,132.824 227.926,133.189 228.515,133.575 L238.022,140.055 C240.348,141.619 244.613,142.168 249.61,141.833 C249.935,141.812 250.25,141.782 250.565,141.761 L311.604,136.337 C315.748,135.951 317.799,135.251 317.597,134.235 C317.535,133.91 317.24,133.555 316.662,133.169 L317.048,133.078 L317.443,132.997 C318.063,133.412 318.409,133.809 318.49,134.185 C318.754,135.394 316.022,136.276 311.715,136.643 L250.676,142.067 C250.351,142.096 250.016,142.126 249.672,142.147 L249.63,142.158 C244.369,142.503 239.677,141.904 237.24,140.228" fill="#373634" id="path71751"/>
    <path d="M173.073,150.466 C168.097,142.858 155.502,119.184 162.185,118.087 C168.867,117.021 171.457,118.169 173.073,112.125 C174.656,106.093 181.502,105.443 183.697,107.189 C185.89,108.936 190.256,112.988 196.422,111.485 C202.526,109.951 213.21,112.948 214.601,115.873 C215.982,118.808 219.405,122.444 221.762,125.226 C224.107,127.98 216.034,143.468 212.936,149.226 C209.838,154.985 205.318,168.696 199.428,168.137 C193.548,167.599 173.073,150.466 173.073,150.466 z" fill="url(#Gradient_40)" id="path71753"/>
    <path d="M199.428,167.476 L199.742,167.476 C204.567,167.771 209.391,154.68 212.326,148.932 C215.028,143.914 221.528,131.26 221.507,126.792 C221.507,126.161 221.376,125.785 221.234,125.654 C218.928,122.871 215.465,119.245 214.013,116.168 C213.291,114.299 205.959,111.618 200.19,111.699 C198.879,111.699 197.63,111.842 196.554,112.105 C195.559,112.329 194.604,112.441 193.7,112.441 C188.663,112.441 185.098,109.149 183.279,107.697 C182.762,107.271 181.756,106.967 180.639,106.967 C177.999,106.996 174.698,108.438 173.692,112.298 C172.056,118.707 168.685,117.751 162.256,118.726 C161.301,118.899 160.947,119.519 160.885,121.185 C160.835,127.644 169.61,144.036 173.57,150.049 C175.114,151.298 194.35,167.142 199.428,167.476 z M199.367,168.776 C192.917,168.076 172.748,150.973 172.656,150.973 L173.062,150.455 L172.514,150.81 C168.513,144.625 159.646,128.446 159.575,121.185 C159.524,119.357 160.265,117.692 162.063,117.447 C169.03,116.249 170.859,117.641 172.442,111.953 C173.601,107.433 177.581,105.667 180.639,105.686 C181.969,105.686 183.188,105.981 184.092,106.661 C185.972,108.195 189.231,111.16 193.7,111.16 C194.492,111.16 195.335,111.049 196.239,110.835 C197.438,110.542 198.788,110.399 200.19,110.399 C206.344,110.5 213.555,112.684 215.17,115.599 C216.46,118.371 219.882,121.997 222.239,124.8 C222.686,125.349 222.788,126.03 222.817,126.792 C222.756,132.051 216.176,144.401 213.504,149.531 C210.366,155.035 206.375,168.483 199.742,168.776 C199.59,168.776 199.459,168.776 199.367,168.776" fill="#373634" id="path71755"/>
    <path d="M156.965,161.191 C153.014,154.193 143.365,132.864 149.5,133.108 C155.644,133.383 157.919,134.744 159.809,130.122 C161.698,125.501 167.974,126.142 169.832,127.919 C171.691,129.706 175.357,133.758 181.035,133.566 C186.702,133.372 196.167,137.608 197.204,140.208 C198.25,142.808 201.084,146.351 203.013,148.993 C204.942,151.633 196.452,162.825 193.202,166.949 C189.982,171.103 184.854,181.451 179.552,180.01 C174.251,178.568 156.965,161.191 156.965,161.191 z" fill="url(#Gradient_41)" id="path71757"/>
    <path d="M179.694,179.36 C179.968,179.442 180.274,179.471 180.578,179.471 C184.742,179.664 189.667,170.574 192.685,166.543 C195.568,162.926 202.729,153.228 202.606,150.008 C202.606,149.662 202.536,149.47 202.465,149.358 C200.555,146.718 197.701,143.204 196.585,140.461 C195.975,138.441 186.784,134.083 181.39,134.195 C181.299,134.195 181.198,134.195 180.985,134.225 C180.842,134.195 180.73,134.195 180.599,134.195 C174.819,134.195 171.153,130.082 169.376,128.396 C168.726,127.767 167.202,127.197 165.567,127.228 C163.444,127.228 161.312,128.071 160.387,130.356 C159.27,133.241 157.513,134.225 155.249,134.144 C153.725,134.144 151.906,133.839 149.327,133.728 C148.494,133.758 148.2,134.235 148.139,135.911 C148.088,141.548 154.436,155.442 157.473,160.784 C158.651,161.932 175.053,178.182 179.694,179.36 z M179.369,180.619 C173.601,178.984 156.579,161.668 156.477,161.637 L156.965,161.18 L156.396,161.505 C153.318,156 146.86,142.259 146.829,135.911 C146.829,134.113 147.519,132.418 149.348,132.418 L149.5,132.458 C152.009,132.56 153.887,132.864 155.249,132.834 C157.239,132.783 158.001,132.479 159.199,129.869 C160.367,126.954 163.14,125.918 165.567,125.918 C167.447,125.948 169.213,126.486 170.279,127.442 C172.107,129.238 175.49,132.916 180.599,132.885 L180.985,132.916 C181.086,132.885 181.217,132.885 181.39,132.885 C187.403,132.996 196.31,136.835 197.803,139.974 C198.757,142.392 201.591,145.956 203.531,148.596 C203.826,149.033 203.906,149.521 203.906,150.008 C203.795,154.345 196.615,163.517 193.71,167.324 C190.663,171.083 186.235,180.588 180.578,180.782 C180.162,180.782 179.755,180.731 179.369,180.619" fill="#373634" id="path71759"/>
    <path d="M174.749,158.133 C171.244,149.805 163.11,124.363 169.904,124.435 C176.678,124.496 179.014,126.06 181.685,120.412 C184.347,114.746 191.201,115.274 193.06,117.356 C194.909,119.437 198.463,124.192 204.77,123.744 C211.098,123.276 221.061,128.05 221.904,131.169 C222.726,134.286 225.459,138.45 227.247,141.569 C229.054,144.696 218.309,158.57 214.205,163.719 C210.132,168.848 203.186,181.584 197.499,180.041 C191.801,178.496 174.749,158.133 174.749,158.133 z" fill="url(#Gradient_42)" id="path71761"/>
    <path d="M197.63,179.38 C197.894,179.431 198.168,179.492 198.442,179.492 C203.176,179.705 209.879,168.238 213.688,163.312 C217.415,158.631 226.88,146.189 226.759,142.451 C226.759,142.158 226.707,141.964 226.688,141.883 C224.879,138.775 222.148,134.611 221.264,131.342 C220.817,129.005 211.647,124.211 205.624,124.344 C205.36,124.344 205.075,124.363 204.78,124.363 C204.455,124.394 204.191,124.394 203.906,124.394 C197.752,124.394 194.279,119.712 192.563,117.783 C191.984,117.101 190.522,116.493 188.825,116.533 C186.398,116.533 183.697,117.61 182.264,120.697 C180.548,124.363 178.506,125.38 175.754,125.329 C174.21,125.329 172.402,125.116 169.813,125.004 L169.813,125.055 C168.593,125.055 167.934,126.364 167.903,129.35 C167.882,136.926 172.767,151.806 175.306,157.787 C176.566,159.23 192.674,178.182 197.63,179.38 z M197.326,180.66 C191.09,178.862 174.342,158.6 174.23,158.549 L174.749,158.133 L174.149,158.387 C171.59,152.283 166.624,137.414 166.592,129.35 C166.592,126.364 167.304,123.825 169.813,123.744 L169.935,123.774 C172.423,123.805 174.291,124.019 175.754,124.019 C178.252,123.937 179.318,123.582 181.097,120.119 C182.741,116.554 186.052,115.223 188.825,115.223 C190.785,115.244 192.522,115.822 193.538,116.909 C195.325,118.95 198.484,123.114 203.906,123.094 C204.151,123.094 204.435,123.094 204.699,123.094 C205.004,123.063 205.309,123.033 205.624,123.033 C212.255,123.175 221.294,127.36 222.513,130.985 C223.265,133.931 225.997,138.095 227.794,141.254 C227.977,141.63 228.068,142.046 228.068,142.451 C227.926,147.326 218.461,159.25 214.703,164.105 C210.834,168.837 204.74,180.579 198.442,180.801 C198.037,180.801 197.672,180.742 197.326,180.66" fill="#373634" id="path71763"/>
    <path d="M194.827,152.08 C194.38,144.118 195.101,120.849 200.535,123.622 C205.968,126.405 207.411,128.579 211.159,125.196 C214.926,121.814 220.299,124.994 221.192,127.37 C222.087,129.767 223.59,134.926 228.82,137.11 C234.01,139.294 240.703,147.053 240.49,149.846 C240.266,152.619 241.281,156.996 241.84,160.185 C242.419,163.363 229.795,169.966 225.031,172.332 C220.279,174.749 211.067,181.97 206.934,178.456 C202.779,174.951 194.827,152.08 194.827,152.08 z" fill="url(#Gradient_43)" id="path71765"/>
    <path d="M207.36,177.948 C207.96,178.467 208.741,178.73 209.747,178.73 C213.981,178.792 220.806,173.774 224.727,171.743 C229.317,169.589 241.566,162.673 241.18,160.378 L241.18,160.296 C240.663,157.412 239.779,153.543 239.779,150.658 C239.779,150.333 239.799,150.029 239.922,150.192 C239.738,149.947 239.799,149.704 239.799,149.704 C239.962,147.438 233.401,139.629 228.547,137.719 C223.022,135.373 221.467,129.93 220.563,127.583 C220.106,126.283 217.516,124.312 214.956,124.354 C213.789,124.354 212.641,124.73 211.575,125.684 C210.163,126.933 208.935,127.562 207.685,127.562 C205.42,127.501 203.632,125.918 200.21,124.181 C199.976,124.08 199.804,124.019 199.622,124.019 C198.565,123.886 196.98,127.157 196.351,132.001 C195.599,136.785 195.335,142.757 195.335,147.358 C195.335,149.166 195.406,150.749 195.477,151.988 C196.167,153.908 203.693,174.983 207.36,177.948 z M206.487,178.954 C202.017,175.033 194.259,152.374 194.198,152.294 L194.827,152.08 L194.177,152.121 C194.097,150.851 194.035,149.217 194.035,147.358 C194.289,138.024 194.523,123.419 199.622,122.738 C199.997,122.738 200.403,122.82 200.819,123.044 C204.303,124.861 206.202,126.304 207.685,126.253 C208.507,126.253 209.391,125.876 210.701,124.73 C211.981,123.531 213.504,123.044 214.956,123.044 C218.115,123.094 220.969,125.135 221.762,127.126 C222.686,129.574 224.138,134.449 229.054,136.521 C234.426,138.887 240.937,146.169 241.11,149.704 L240.703,149.704 L241.11,149.886 C241.079,150.16 241.079,150.414 241.079,150.658 C241.038,153.269 241.922,157.137 242.49,160.185 L242.49,160.378 C242.115,164.603 229.988,170.371 225.337,172.91 C221.517,174.789 214.794,179.989 209.747,180.041 C208.528,180.041 207.39,179.716 206.487,178.954" fill="#373634" id="path71767"/>
    <path d="M230.822,255.105 C233.249,256.73 230.953,257.868 225.58,258.345 L166.481,263.596 C161.109,264.062 156.335,263.575 153.898,261.941 L144.747,255.836 C142.31,254.211 144.635,253.063 149.998,252.596 L209.087,247.335 C214.449,246.869 219.242,247.376 221.66,249.001 z" fill="url(#Gradient_44)" id="path71769"/>
    <path d="M153.512,262.032 L144.34,255.908 C143.741,255.511 143.416,255.146 143.335,254.791 C143.101,253.622 145.752,252.789 149.937,252.434 L209.036,247.183 C209.351,247.153 209.697,247.133 210.031,247.101 C215.119,246.757 219.7,247.325 222.066,248.899 L231.227,255.024 L230.822,255.105 L230.415,255.196 L221.264,249.072 C219.06,247.62 214.916,247.101 210.092,247.417 C209.777,247.437 209.473,247.458 209.148,247.487 L150.038,252.738 C146.037,253.124 144.047,253.785 144.229,254.73 C144.29,255.034 144.585,255.369 145.142,255.735 L154.304,261.849 C156.517,263.322 160.641,263.839 165.476,263.514 C165.78,263.494 166.115,263.474 166.42,263.444 L225.519,258.183 C229.541,257.817 231.522,257.157 231.318,256.201 C231.267,255.897 230.974,255.562 230.415,255.196 L230.822,255.105 L231.227,255.024 C231.816,255.42 232.141,255.796 232.202,256.142 C232.466,257.299 229.826,258.142 225.641,258.497 L166.531,263.748 C166.187,263.779 165.872,263.809 165.547,263.83 L165.506,263.83 C160.417,264.164 155.848,263.606 153.512,262.032 z" fill="url(#Gradient_45)" id="path71771"/>
    <path d="M233.35,288.285 L232.974,256.568 L231.765,256.598 C231.451,257.391 229.197,257.959 225.57,258.294 L166.451,263.505 C161.088,263.982 156.335,263.575 153.968,262.154 L145.041,256.781 C144.167,256.243 143.253,255.38 143.579,254.963 L142.705,255.481 C142.705,255.481 142.593,287.717 143.944,289.575 C144.553,290.408 153.329,295.263 153.329,295.263 C155.624,296.248 160.428,296.442 165.953,295.963 L226.85,290.651 C232.365,290.164 233.857,289.524 233.35,288.285 z" fill="url(#Gradient_46)" id="path71773"/>
    <path d="M164.49,295.903 C164.957,295.883 165.435,295.842 165.902,295.801 L226.779,290.489 C231.917,290.022 233.116,289.555 232.985,288.56 L232.903,288.326 L233.35,288.285 L232.903,288.306 L232.538,256.741 L232.131,256.75 C231.531,257.573 229.115,258.142 225.631,258.447 L166.491,263.667 C166.156,263.697 165.78,263.728 165.435,263.748 C160.388,264.104 155.888,263.626 153.573,262.245 L144.655,256.862 C144.036,256.486 143.397,255.969 143.152,255.501 L143.152,255.511 C143.131,255.928 143.122,284.985 143.61,287.392 C143.781,288.285 144.036,289.068 144.381,289.524 C144.929,290.286 153.694,295.161 153.694,295.151 C155.624,295.994 159.656,296.237 164.49,295.903 z M152.953,295.364 C152.923,295.344 144.209,290.52 143.517,289.626 C143.152,289.129 142.899,288.357 142.726,287.453 C142.188,284.853 142.259,255.501 142.259,255.501 L142.259,255.46 L142.319,255.42 L143.203,254.892 L143.985,254.994 L143.965,255.226 C144.036,255.633 144.747,256.273 145.427,256.68 L154.365,262.062 C156.498,263.332 160.54,263.758 165.354,263.433 C165.71,263.423 166.054,263.393 166.39,263.362 L225.499,258.142 C229.094,257.817 231.075,257.258 231.329,256.587 L231.39,256.446 L231.786,256.435 L233.401,256.405 L233.797,288.255 L233.867,288.488 C234.131,289.657 232.08,290.378 226.901,290.794 L166.004,296.117 C165.516,296.157 165.039,296.197 164.562,296.218 C159.565,296.562 155.198,296.339 152.953,295.364" fill="#373634" id="path71775"/>
    <path d="M225.58,258.345 L166.481,263.596 C161.109,264.062 156.335,263.575 153.898,261.941 L144.747,255.836 C142.31,254.211 144.625,253.063 149.998,252.596 L209.087,247.335 C214.449,246.869 219.242,247.376 221.66,249.001 L230.822,255.105 C233.249,256.73 230.953,257.868 225.58,258.345 z M232.141,255.247 L222.625,248.768 C220.106,247.051 215.17,246.493 209.635,246.98 L148.597,252.424 C143.061,252.911 140.674,254.11 143.213,255.836 L152.719,262.306 C155.238,264.033 160.185,264.581 165.74,264.083 L226.749,258.649 C232.293,258.162 234.66,256.963 232.141,255.247" fill="url(#Gradient_47)" id="path71777"/>
    <path d="M209.148,247.487 L150.038,252.738 C146.016,253.124 144.047,253.785 144.229,254.73 C144.29,255.034 144.585,255.369 145.142,255.735 L154.293,261.849 C156.517,263.322 160.641,263.839 165.476,263.514 C165.78,263.494 166.115,263.463 166.42,263.444 L225.519,258.183 C229.541,257.817 231.512,257.157 231.318,256.201 C231.267,255.897 230.974,255.562 230.415,255.196 L221.264,249.072 C219.06,247.62 214.916,247.101 210.092,247.417 C209.756,247.437 209.473,247.458 209.148,247.487 z M152.313,262.397 L142.806,255.908 C142.188,255.501 141.842,255.095 141.771,254.73 C141.497,253.51 144.229,252.637 148.535,252.261 L209.574,246.837 C209.899,246.797 210.224,246.776 210.56,246.757 C215.84,246.392 220.593,247 223.022,248.676 L232.538,255.156 L232.141,255.247 L231.735,255.329 L222.229,248.849 C219.913,247.285 215.638,246.736 210.63,247.071 L210.448,247.082 C215.363,246.776 219.772,247.367 222.066,248.899 L231.227,255.024 C231.816,255.42 232.141,255.796 232.202,256.142 C232.466,257.299 229.826,258.142 225.641,258.497 L166.522,263.748 C166.187,263.779 165.872,263.799 165.556,263.83 C160.438,264.174 155.867,263.606 153.491,262.032 L144.34,255.908 C143.741,255.511 143.416,255.146 143.335,254.791 C143.131,253.785 145.102,253.012 148.373,252.607 C144.412,252.983 142.462,253.683 142.654,254.669 C142.726,254.983 143.02,255.349 143.61,255.735 L153.115,262.224 C155.422,263.779 159.706,264.337 164.724,264.001 C165.009,263.982 165.334,263.961 165.659,263.931 L226.698,258.508 C230.841,258.121 232.882,257.41 232.69,256.405 C232.639,256.091 232.335,255.714 231.735,255.329 L232.141,255.247 L232.538,255.156 C233.147,255.583 233.502,255.979 233.563,256.344 C233.848,257.562 231.115,258.447 226.81,258.822 L165.77,264.235 C165.435,264.267 165.11,264.296 164.765,264.317 L164.735,264.317 C159.463,264.672 154.751,264.062 152.313,262.397" fill="#373634" id="path71779"/>
    <path d="M218.674,365.321 C220.705,366.651 218.786,367.596 214.348,367.982 L165.455,372.329 C161.027,372.735 157.076,372.308 155.055,370.968 L147.489,365.91 C145.467,364.569 147.387,363.624 151.826,363.229 L200.707,358.892 C205.146,358.496 209.087,358.912 211.107,360.262 z" fill="url(#Gradient_48)" id="path71781"/>
    <path d="M154.74,371.038 L147.164,365.981 C146.666,365.656 146.402,365.342 146.341,365.046 C146.117,364.082 148.312,363.392 151.765,363.107 L200.656,358.76 C200.941,358.739 201.205,358.719 201.49,358.699 C205.685,358.405 209.482,358.871 211.442,360.182 L218.999,365.239 L218.674,365.321 L218.36,365.392 L210.763,360.324 C208.935,359.116 205.531,358.688 201.52,358.953 C201.266,358.973 201.013,358.994 200.759,359.013 L151.866,363.35 C148.544,363.666 146.919,364.213 147.062,364.996 C147.113,365.249 147.356,365.524 147.824,365.838 L155.401,370.886 C157.218,372.105 160.641,372.532 164.642,372.268 C164.887,372.247 165.161,372.226 165.404,372.207 L214.306,367.86 C217.607,367.555 219.242,367.007 219.09,366.224 C219.04,365.971 218.816,365.696 218.36,365.392 L218.674,365.321 L218.999,365.239 C219.497,365.574 219.771,365.88 219.831,366.174 C220.035,367.129 217.841,367.83 214.399,368.113 L165.506,372.46 C165.242,372.492 164.957,372.501 164.693,372.521 L164.663,372.521 C160.459,372.806 156.67,372.338 154.74,371.038 z" fill="url(#Gradient_49)" id="path71783"/>
    <path d="M220.766,392.753 L220.451,366.519 L219.466,366.549 C219.192,367.199 217.343,367.676 214.317,367.942 L165.435,372.268 C160.997,372.654 157.076,372.308 155.116,371.13 L147.732,366.692 C146.991,366.255 146.25,365.534 146.514,365.188 L145.792,365.625 C145.792,365.625 145.701,392.285 146.829,393.819 C147.326,394.51 154.588,398.521 154.588,398.521 C156.498,399.344 160.459,399.496 165.039,399.091 L215.384,394.712 C219.954,394.307 221.192,393.779 220.766,392.753 z" fill="url(#Gradient_50)" id="path71785"/>
    <path d="M163.83,399.06 C164.197,399.039 164.592,399.009 164.988,398.969 L215.332,394.571 C219.588,394.185 220.584,393.799 220.451,392.976 L220.401,392.794 L220.756,392.753 L220.401,392.773 L220.086,366.661 L219.772,366.672 C219.274,367.342 217.263,367.819 214.367,368.062 L165.476,372.389 C165.191,372.41 164.887,372.441 164.592,372.46 C160.417,372.745 156.701,372.369 154.791,371.211 L147.398,366.762 C146.91,366.458 146.362,366.021 146.168,365.635 L146.159,365.635 C146.159,366.001 146.138,390.021 146.544,392.011 C146.687,392.753 146.91,393.393 147.185,393.779 C147.631,394.408 154.892,398.441 154.882,398.43 C156.498,399.121 159.818,399.324 163.83,399.06 z M154.274,398.603 C154.274,398.583 147.031,394.611 146.484,393.86 C146.168,393.454 145.965,392.804 145.813,392.062 C145.366,389.919 145.427,365.635 145.427,365.635 L145.427,365.605 L145.488,365.574 L146.21,365.137 L146.869,365.209 L146.829,365.401 C146.91,365.747 147.489,366.285 148.048,366.61 L155.451,371.059 C157.188,372.116 160.57,372.471 164.541,372.207 C164.826,372.186 165.11,372.167 165.374,372.146 L214.287,367.809 C217.242,367.556 218.888,367.098 219.101,366.539 L219.141,366.418 L219.487,366.418 L220.797,366.387 L221.131,392.722 L221.192,392.916 C221.426,393.891 219.71,394.489 215.435,394.835 L165.069,399.222 C164.663,399.262 164.277,399.283 163.881,399.313 C159.757,399.598 156.131,399.416 154.274,398.603" fill="#373634" id="path71787"/>
    <path d="M214.348,367.982 L165.455,372.329 C161.027,372.735 157.076,372.308 155.055,370.968 L147.489,365.91 C145.467,364.569 147.388,363.624 151.826,363.229 L200.707,358.892 C205.147,358.496 209.087,358.912 211.107,360.262 L218.674,365.321 C220.705,366.651 218.776,367.596 214.348,367.982 z M219.772,365.422 L211.91,360.07 C209.817,358.648 205.725,358.192 201.144,358.587 L150.667,363.086 C146.077,363.493 144.127,364.487 146.21,365.91 L154.09,371.272 C156.163,372.694 160.255,373.151 164.836,372.735 L215.313,368.246 C219.892,367.839 221.863,366.844 219.772,365.422" fill="url(#Gradient_51)" id="path71789"/>
    <path d="M200.759,359.013 L151.866,363.35 C148.545,363.666 146.92,364.213 147.062,364.996 C147.113,365.249 147.356,365.524 147.824,365.838 L155.39,370.886 C157.218,372.105 160.641,372.532 164.642,372.268 C164.887,372.247 165.161,372.226 165.404,372.207 L214.306,367.86 C217.607,367.555 219.242,367.007 219.09,366.224 C219.04,365.971 218.816,365.696 218.36,365.392 L210.763,360.324 C208.935,359.116 205.531,358.688 201.52,358.953 C201.266,358.973 201.013,358.994 200.759,359.013 z M153.755,371.354 L145.894,365.981 C145.366,365.635 145.092,365.3 145.031,364.996 C144.798,363.991 147.062,363.269 150.627,362.964 L201.104,358.475 C201.388,358.455 201.652,358.424 201.926,358.405 C206.293,358.099 210.204,358.608 212.225,359.999 L220.106,365.361 L219.772,365.422 L219.436,365.494 L211.565,360.131 C209.655,358.842 206.122,358.384 201.967,358.669 L201.825,358.669 C205.898,358.435 209.534,358.912 211.442,360.182 L218.999,365.239 C219.497,365.574 219.772,365.88 219.831,366.174 C220.035,367.129 217.841,367.83 214.399,368.113 L165.506,372.46 C165.242,372.492 164.957,372.501 164.693,372.521 C160.468,372.806 156.68,372.349 154.74,371.038 L147.154,365.981 C146.666,365.656 146.402,365.342 146.341,365.046 C146.159,364.213 147.793,363.584 150.485,363.238 C147.215,363.563 145.6,364.133 145.752,364.945 C145.813,365.209 146.056,365.504 146.544,365.838 L154.405,371.192 C156.315,372.492 159.86,372.948 163.992,372.674 C164.256,372.654 164.521,372.633 164.795,372.603 L215.262,368.124 C218.694,367.799 220.38,367.23 220.238,366.376 C220.177,366.112 219.913,365.819 219.436,365.494 L219.772,365.422 L220.106,365.361 C220.604,365.696 220.899,366.021 220.949,366.336 C221.173,367.342 218.917,368.062 215.363,368.378 L164.866,372.867 C164.592,372.887 164.328,372.908 164.043,372.928 L164.013,372.928 C159.656,373.212 155.766,372.714 153.755,371.354" fill="#373634" id="path71791"/>
    <path d="M200.272,157.667 C200.749,170.899 191.801,182.101 180.263,182.66 C168.715,183.199 158.955,172.961 158.467,159.697 C157.99,146.484 166.938,135.271 178.476,134.723 C190.024,134.155 199.774,144.433 200.272,157.667 z" fill="url(#Gradient_52)" id="path71793"/>
    <path d="M184.438,139.598 L172.037,130.63 L178.953,142.005 L173.54,146.535 L183.859,149.196 C183.859,149.196 188.926,160.693 188.794,157.504 C188.673,154.314 191.273,148.85 191.273,148.85 L196.676,144.321 L189.068,139.374 L194.299,130.62 z" fill="url(#Gradient_53)" id="path71795"/>
    <path d="M179.776,142.126 L179.36,142.503 L174.88,146.23 L184.448,148.932 C184.448,148.932 186.774,154.151 188.144,156.488 C188.5,153.035 190.704,148.586 190.847,148.353 L195.559,144.382 L188.185,139.568 L188.51,139.039 L191.476,134.033 L184.864,140.075 L184.427,139.587 L184.041,140.106 L174.24,133.026 z M183.686,149.825 L172.117,146.86 L173.124,146.047 L178.09,141.873 L171.467,130.956 L172.423,130.112 L184.387,138.766 L193.842,130.143 L194.827,130.956 L189.931,139.151 L197.763,144.249 L197.092,144.819 L191.862,149.114 C191.862,149.145 189.384,154.345 189.414,157.291 C189.414,157.291 189.414,157.351 189.342,157.605 L189.384,157.605 L189.374,157.676 C189.374,157.93 189.475,158.499 188.591,158.701 C186.59,158.072 183.676,149.988 183.686,149.825" fill="#373634" id="path71797"/>
    <path d="M186.265,174.413 C186.763,187.647 177.785,198.839 166.248,199.408 C154.71,199.947 144.96,189.709 144.482,176.435 C143.985,163.232 152.923,152.009 164.46,151.471 C176.017,150.892 185.767,161.17 186.265,174.413 z" fill="url(#Gradient_54)" id="path71799"/>
    <path d="M165.343,200.048 C153.776,200.048 144.269,189.658 143.813,176.475 C143.781,176.12 143.762,175.774 143.762,175.388 C143.762,162.348 152.74,151.38 164.419,150.8 C164.724,150.8 165.049,150.78 165.364,150.78 C176.912,150.78 186.367,161.2 186.895,174.383 L186.255,174.404 L185.605,174.434 C185.077,161.799 176.068,152.06 165.364,152.08 C165.1,152.08 164.795,152.08 164.48,152.11 C153.634,152.598 145.062,162.917 145.062,175.388 C145.062,175.683 145.092,176.038 145.123,176.414 C145.549,189.029 154.609,198.769 165.343,198.769 C165.617,198.769 165.913,198.769 166.187,198.737 C176.992,198.23 185.605,187.942 185.605,175.439 C185.605,175.084 185.605,174.759 185.605,174.434 L186.255,174.404 L186.895,174.383 C186.895,174.738 186.895,175.114 186.895,175.439 C186.895,188.51 177.897,199.449 166.267,200.048 C165.942,200.048 165.617,200.048 165.343,200.048" fill="#373634" id="path71801"/>
    <path d="M170.422,156.356 L158.022,147.368 L164.938,158.753 L159.544,163.283 L169.842,165.933 C169.842,165.933 174.911,177.43 174.799,174.251 C174.677,171.072 177.256,165.598 177.256,165.598 L182.68,161.069 L175.063,156.122 L180.304,147.358 z" fill="url(#Gradient_55)" id="path71803"/>
    <path d="M165.76,158.885 L165.334,159.23 L160.885,162.968 L170.422,165.659 C170.442,165.659 172.767,170.95 174.149,173.267 C174.454,169.812 176.667,165.344 176.84,165.091 L181.584,161.119 L174.179,156.325 L174.504,155.776 L177.46,150.8 L170.849,156.812 L170.422,156.356 L170.015,156.863 L160.235,149.785 z M169.68,166.562 L158.123,163.587 L159.117,162.774 L164.074,158.61 L157.452,147.693 L158.387,146.849 L170.351,155.512 L179.867,146.88 L180.842,147.693 L175.916,155.888 L183.756,160.976 L183.076,161.556 L177.847,165.883 C177.847,165.883 175.399,171.051 175.418,174.018 C175.418,174.018 175.418,174.079 175.348,174.322 L175.399,174.322 L175.367,174.474 C175.317,174.769 175.266,175.236 174.606,175.439 C172.585,174.83 169.66,166.716 169.68,166.562" fill="#373634" id="path71805"/>
    <path d="M225.073,165.821 C225.57,179.055 216.592,190.247 205.065,190.806 C193.538,191.344 183.788,181.117 183.29,167.843 C182.802,154.63 191.76,143.417 203.298,142.879 C214.835,142.289 224.575,152.578 225.073,165.821 z" fill="url(#Gradient_56)" id="path71807"/>
    <path d="M203.328,143.519 C192.461,143.985 183.879,154.305 183.879,166.776 C183.879,167.101 183.899,167.426 183.94,167.812 C184.397,180.447 193.436,190.167 204.201,190.167 C204.465,190.167 204.74,190.167 205.014,190.146 C215.79,189.618 224.423,179.33 224.423,166.858 C224.423,166.512 224.423,166.197 224.402,165.851 C223.874,153.208 214.906,143.468 204.201,143.488 C203.927,143.488 203.623,143.488 203.328,143.519 z M182.629,167.894 C182.599,167.538 182.568,167.151 182.568,166.776 C182.568,153.735 191.556,142.757 203.237,142.208 C203.541,142.208 203.866,142.188 204.201,142.188 C215.739,142.188 225.185,152.619 225.702,165.801 L225.063,165.822 L225.702,165.801 C225.732,166.146 225.732,166.501 225.732,166.858 C225.732,179.908 216.693,190.857 205.085,191.446 C204.77,191.476 204.465,191.476 204.201,191.476 C192.624,191.446 183.117,181.067 182.629,167.894" fill="#373634" id="path71809"/>
    <path d="M209.239,147.754 L196.838,138.775 L203.765,150.15 L198.362,154.68 L208.67,157.351 C208.67,157.351 213.749,168.837 213.606,165.649 C213.485,162.46 216.085,156.985 216.085,156.985 L221.498,152.476 L213.88,147.51 L219.122,138.766 z" fill="url(#Gradient_57)" id="path71811"/>
    <path d="M257.856,267.283 C260.294,268.908 257.979,270.055 252.616,270.522 L193.506,275.783 C188.154,276.25 183.372,275.743 180.934,274.118 L171.773,268.004 C169.355,266.388 171.661,265.251 177.024,264.774 L236.123,259.512 C241.485,259.046 246.279,259.554 248.686,261.169 z" fill="url(#Gradient_58)" id="path71813"/>
    <path d="M180.548,274.209 L171.387,268.095 C170.788,267.699 170.452,267.323 170.381,266.968 C170.127,265.81 172.788,264.967 176.973,264.611 L236.062,259.36 C236.387,259.33 236.742,259.31 237.056,259.289 C242.155,258.934 246.747,259.503 249.092,261.087 L258.263,267.192 L257.856,267.283 L257.461,267.374 L248.29,261.26 C246.086,259.787 241.942,259.28 237.117,259.594 C236.803,259.614 236.509,259.645 236.193,259.675 L177.074,264.926 C173.073,265.292 171.092,265.962 171.254,266.896 C171.336,267.211 171.61,267.557 172.168,267.922 L181.34,274.036 C183.543,275.499 187.688,276.017 192.512,275.692 C192.826,275.682 193.141,275.661 193.447,275.621 L252.555,270.37 C256.567,270.005 258.548,269.324 258.365,268.38 C258.303,268.085 258.019,267.749 257.461,267.374 L257.856,267.283 L258.263,267.192 C258.842,267.597 259.188,267.973 259.238,268.329 C259.492,269.486 256.851,270.319 252.677,270.674 L193.578,275.925 C193.232,275.956 192.898,275.986 192.582,276.007 L192.552,276.017 C187.443,276.351 182.884,275.783 180.548,274.209 z" fill="url(#Gradient_59)" id="path71815"/>
    <path d="M260.376,300.462 L260.01,268.755 L258.801,268.775 C258.476,269.568 256.242,270.136 252.597,270.471 L193.487,275.692 C188.114,276.169 183.372,275.753 181.004,274.342 L172.077,268.948 C171.193,268.42 170.279,267.557 170.615,267.15 L169.731,267.658 C169.731,267.658 169.619,299.894 170.99,301.753 C171.59,302.585 180.375,307.43 180.375,307.43 C182.66,308.435 187.454,308.619 192.979,308.131 L253.876,302.83 C259.401,302.342 260.904,301.701 260.376,300.462 z" fill="url(#Gradient_60)" id="path71817"/>
    <path d="M191.516,308.091 C191.984,308.06 192.461,308.019 192.928,307.988 L253.815,302.676 C258.954,302.199 260.152,301.722 260.01,300.737 L259.928,300.504 L260.376,300.462 L259.928,300.494 L259.563,268.918 L259.177,268.928 C258.578,269.75 256.151,270.319 252.656,270.613 L193.538,275.844 C193.181,275.885 192.816,275.905 192.461,275.925 C187.413,276.271 182.924,275.813 180.609,274.422 L171.691,269.049 C171.062,268.674 170.422,268.146 170.188,267.688 L170.178,267.688 C170.178,268.116 170.148,297.151 170.645,299.569 C170.817,300.462 171.062,301.245 171.406,301.712 C171.955,302.454 180.73,307.349 180.73,307.349 L180.73,307.338 C182.66,308.182 186.692,308.416 191.516,308.091 z M179.979,307.532 C179.959,307.521 171.244,302.708 170.554,301.813 C170.188,301.317 169.924,300.534 169.762,299.63 C169.224,297.02 169.294,267.679 169.294,267.679 L169.294,267.637 L169.365,267.597 L170.239,267.08 L171.031,267.171 L170.99,267.405 C171.062,267.8 171.773,268.46 172.463,268.867 L181.39,274.239 C183.524,275.509 187.586,275.935 192.39,275.61 C192.735,275.591 193.08,275.57 193.426,275.539 L252.545,270.309 C256.13,270.005 258.101,269.446 258.375,268.775 L258.426,268.633 L258.831,268.612 L260.426,268.583 L260.823,300.433 L260.904,300.676 C261.178,301.844 259.106,302.566 253.926,302.982 L193.04,308.294 C192.563,308.334 192.065,308.364 191.598,308.395 C186.59,308.741 182.234,308.517 179.979,307.532" fill="#373634" id="path71819"/>
    <path d="M252.616,270.522 L193.506,275.783 C188.154,276.25 183.372,275.743 180.934,274.118 L171.773,268.004 C169.355,266.388 171.661,265.251 177.024,264.774 L236.123,259.512 C241.485,259.046 246.279,259.554 248.686,261.169 L257.856,267.283 C260.294,268.908 257.979,270.055 252.616,270.522 z M259.188,267.424 L249.661,260.945 C247.131,259.229 242.216,258.67 236.661,259.168 L175.622,264.592 C170.106,265.099 167.7,266.287 170.239,268.013 L179.755,274.483 C182.274,276.199 187.21,276.758 192.765,276.271 L253.774,270.837 C259.34,270.33 261.697,269.142 259.188,267.424" fill="url(#Gradient_61)" id="path71821"/>
    <path d="M236.193,259.675 L177.074,264.926 C173.063,265.292 171.092,265.962 171.254,266.896 C171.336,267.211 171.61,267.557 172.168,267.922 L181.34,274.036 C183.543,275.499 187.677,276.017 192.522,275.692 C192.826,275.682 193.141,275.651 193.447,275.621 L252.555,270.37 C256.567,270.005 258.538,269.324 258.365,268.38 C258.304,268.085 258.019,267.749 257.461,267.374 L248.29,261.26 C246.086,259.787 241.942,259.28 237.117,259.594 C236.803,259.614 236.509,259.645 236.193,259.675 z M179.36,274.574 L169.842,268.095 C169.224,267.669 168.867,267.283 168.806,266.896 C168.542,265.688 171.254,264.814 175.572,264.449 L236.61,259.025 C236.935,258.985 237.26,258.955 237.605,258.934 C242.866,258.569 247.619,259.188 250.056,260.854 L259.563,267.344 L259.188,267.424 L258.772,267.517 L249.254,261.026 C246.96,259.462 242.663,258.913 237.656,259.249 L237.474,259.259 C242.399,258.964 246.797,259.544 249.092,261.087 L258.263,267.192 C258.842,267.597 259.188,267.973 259.238,268.329 C259.492,269.486 256.851,270.319 252.677,270.674 L193.567,275.925 C193.232,275.956 192.898,275.986 192.582,276.007 C187.474,276.351 182.904,275.794 180.538,274.209 L171.387,268.095 C170.788,267.699 170.452,267.333 170.381,266.968 C170.178,265.962 172.149,265.2 175.409,264.784 C171.448,265.16 169.507,265.86 169.68,266.846 C169.762,267.171 170.047,267.536 170.645,267.922 L180.162,274.401 C182.456,275.967 186.732,276.505 191.75,276.189 C192.054,276.159 192.369,276.129 192.694,276.108 L253.724,270.685 C257.877,270.299 259.909,269.598 259.715,268.583 C259.665,268.268 259.36,267.901 258.772,267.517 L259.188,267.424 L259.563,267.344 C260.173,267.76 260.528,268.156 260.599,268.521 C260.874,269.741 258.162,270.613 253.835,270.989 L192.797,276.423 C192.461,276.444 192.147,276.474 191.811,276.494 L191.77,276.505 C186.499,276.849 181.787,276.25 179.36,274.574" fill="#373634" id="path71823"/>
    <path d="M345.363,282.994 C345.931,298.655 335.329,311.899 321.679,312.559 C308.039,313.199 296.491,301.093 295.923,285.392 C295.343,269.75 305.937,256.496 319.587,255.857 C333.247,255.167 344.774,267.333 345.363,282.994 z" fill="url(#Gradient_62)" id="path71825"/>
    <path d="M320.642,313.219 C307.013,313.219 295.811,301.001 295.263,285.432 C295.242,285.025 295.212,284.588 295.212,284.151 C295.212,268.775 305.815,255.857 319.547,255.196 C319.912,255.176 320.256,255.146 320.642,255.146 C334.231,255.176 345.374,267.435 345.992,282.954 L345.342,282.984 L344.692,283.005 C344.093,268.044 333.399,256.456 320.642,256.456 C320.317,256.456 319.952,256.486 319.617,256.507 C306.718,257.075 296.522,269.324 296.522,284.151 C296.522,284.528 296.552,284.944 296.573,285.381 C297.09,300.342 307.836,311.939 320.642,311.939 C320.948,311.939 321.303,311.909 321.617,311.909 C334.497,311.28 344.713,299.042 344.713,284.183 C344.713,283.767 344.713,283.391 344.692,283.005 L345.342,282.984 L345.992,282.954 C346.024,283.36 346.024,283.796 346.024,284.183 C346.024,299.61 335.39,312.508 321.679,313.219 C321.334,313.219 320.967,313.219 320.642,313.219" fill="#373634" id="path71827"/>
    <path d="M326.615,261.616 L311.928,251.001 L320.145,264.459 L313.737,269.832 L325.944,272.97 C325.944,272.97 331.956,286.569 331.794,282.801 C331.652,279.023 334.719,272.554 334.719,272.554 L341.117,267.211 L332.11,261.351 L338.315,250.982 z" fill="url(#Gradient_63)" id="path71829"/>
    <path d="M320.988,264.571 L320.541,264.957 L315.067,269.517 L326.513,272.696 C326.534,272.696 329.489,279.379 331.114,281.958 C331.399,277.896 334.13,272.31 334.273,272.046 L340.001,267.251 L331.205,261.524 L331.53,261.006 L335.481,254.414 L327.031,262.103 L326.594,261.605 L326.218,262.123 L314.163,253.43 z M325.772,273.599 L312.335,270.106 L313.32,269.324 L319.281,264.307 L311.35,251.326 L312.315,250.484 L326.554,260.783 L337.857,250.505 L338.863,251.307 L332.973,261.137 L342.215,267.141 L341.514,267.709 L335.288,272.837 C335.288,272.837 332.374,278.993 332.404,282.547 C332.404,282.547 332.424,282.649 332.342,282.923 L332.404,282.923 C332.342,283.248 332.515,283.908 331.591,284.101 C329.388,283.451 325.762,273.732 325.772,273.599" fill="#373634" id="path71831"/>
    <path d="M309.573,290.022 C310.141,305.694 299.538,318.937 285.899,319.597 C272.249,320.247 260.711,308.131 260.131,292.43 C259.563,276.799 270.156,263.535 283.797,262.885 C297.466,262.205 309.004,274.371 309.573,290.022 z" fill="url(#Gradient_64)" id="path71833"/>
    <path d="M283.826,263.535 C270.917,264.104 260.722,276.403 260.722,291.221 C260.722,291.576 260.741,291.993 260.772,292.399 C261.29,307.38 272.055,318.968 284.842,318.968 C285.177,318.968 285.513,318.947 285.848,318.947 C298.715,318.318 308.942,306.049 308.942,291.221 C308.942,290.814 308.942,290.438 308.902,290.022 C308.334,275.093 297.629,263.474 284.873,263.474 C284.506,263.474 284.181,263.505 283.826,263.535 z M284.842,320.247 C271.242,320.247 260.01,308.009 259.462,292.449 C259.441,292.063 259.411,291.637 259.411,291.221 C259.411,275.824 270.014,262.885 283.755,262.224 C284.101,262.205 284.487,262.205 284.873,262.205 C298.441,262.205 309.613,274.462 310.202,290.001 L309.563,290.022 L310.202,290.001 C310.202,290.408 310.202,290.814 310.202,291.221 C310.202,306.648 299.61,319.536 285.909,320.247 C285.553,320.247 285.177,320.247 284.842,320.247" fill="#373634" id="path71835"/>
    <path d="M290.835,268.663 L276.168,258.041 L284.365,271.497 L277.976,276.86 L290.164,280.008 C290.164,280.008 296.156,293.597 296.004,289.839 C295.872,286.061 298.949,279.582 298.949,279.582 L305.317,274.239 L296.329,268.38 L302.524,258.03 z" fill="url(#Gradient_65)" id="path71837"/>
    <path d="M285.188,271.619 L284.751,271.995 L279.306,276.545 L290.742,279.744 C290.742,279.744 293.709,286.407 295.334,288.996 C295.607,284.904 298.36,279.337 298.513,279.074 L304.21,274.291 L295.435,268.593 L295.76,268.044 L299.722,261.453 L291.272,269.131 L290.835,268.674 L290.417,269.192 L278.382,260.468 z M289.981,280.637 L276.554,277.174 L277.56,276.351 L283.491,271.345 L275.6,258.375 L276.554,257.522 L290.793,267.821 L302.077,257.553 L303.073,258.375 L297.181,268.176 L306.384,274.148 L305.713,274.726 L299.517,279.876 C299.517,279.876 296.582,286.061 296.613,289.606 C296.613,289.606 296.624,289.676 296.531,289.961 L296.613,289.961 C296.552,290.256 296.755,290.917 295.78,291.13 C293.627,290.51 289.991,280.791 289.981,280.637" fill="#373634" id="path71839"/>
  </g>
</svg>
